<?xml version="1.0" standalone="no"?>
<!DOCTYPE svg PUBLIC "-//W3C//DTD SVG 1.1//EN" "http://www.w3.org/Graphics/SVG/1.1/DTD/svg11.dtd" >
<svg xmlns="http://www.w3.org/2000/svg" xmlns:xlink="http://www.w3.org/1999/xlink" version="1.1">
<metadata></metadata>
<defs>
<font id="park_lane_nfregular" horiz-adv-x="1710" >
<font-face units-per-em="2048" ascent="1802" descent="-246" />
<missing-glyph horiz-adv-x="1024" />
<glyph horiz-adv-x="0" />
<glyph horiz-adv-x="682" />
<glyph unicode=" "  horiz-adv-x="1024" />
<glyph unicode="&#x09;" horiz-adv-x="1024" />
<glyph unicode="&#xa0;" horiz-adv-x="1024" />
<glyph unicode="!" horiz-adv-x="503" d="M49 203q0 55 26.5 101t74.5 75h-66v1169h240v-1536q-16 -8 -35 -10t-35 -2q-86 0 -145.5 58.5t-59.5 144.5zM365 33v340q43 -29 66.5 -74t23.5 -96t-24.5 -96.5t-65.5 -73.5zM365 387v1161h57v-1161h-57z" />
<glyph unicode="&#x22;" horiz-adv-x="933" d="M49 1339q0 86 59.5 144.5t145.5 58.5q29 0 55.5 -6t48.5 -23v-348q-51 -29 -104 -28q-86 0 -145.5 58t-59.5 144zM397 1036v445q29 -29 43.5 -65t14.5 -77v-303h-58zM479 1339q0 86 59.5 144.5t145.5 58.5q29 0 55.5 -6t48.5 -23v-348q-51 -29 -104 -28q-86 0 -145.5 58 t-59.5 144zM827 1036v445q29 -29 43.5 -65t14.5 -77v-303h-58z" />
<glyph unicode="#" horiz-adv-x="987" d="M49 651v64h203l72 360h-275v64h287l80 401h65l-80 -401h277l80 401h65l-80 -401h195v-64h-209l-72 -360h281v-64h-293l-133 -651h-63l133 651h-279l-133 -651h-64l134 651h-191zM315 715h279l72 360h-279z" />
<glyph unicode="$" horiz-adv-x="1034" d="M49 649h57q0 -80 29 -151.5t80 -126t119.5 -89t148.5 -42.5v821q-59 12 -99 60t-40 110q0 66 40 106.5t99 61.5v141h58v-141q47 -6 81.5 -33t51.5 -70l-53 -22q-10 29 -31 44t-49 21v-225q72 -2 145 -29v-874q-35 -12 -71.5 -21.5t-73.5 -9.5v-180h-58v180q-92 8 -172 47 t-138 102.5t-91 145.5t-33 174zM403 1231q0 -37 21.5 -69t58.5 -42v217q-35 -6 -57.5 -38.5t-22.5 -67.5zM541 238q20 0 42.5 4t43.5 10v790q-47 14 -86 17v-821zM723 227v840q121 -59 191.5 -172t70.5 -246q0 -135 -70.5 -247.5t-191.5 -174.5z" />
<glyph unicode="%" horiz-adv-x="1282" d="M49 1219q0 86 44 160.5t118 121.5v-565q-74 45 -118 119.5t-44 163.5zM238 924v589q63 31 137 31q68 0 127 -25.5t104 -69.5t70.5 -103t25.5 -127t-25.5 -128.5t-70.5 -104.5t-104.5 -69.5t-126.5 -25.5q-68 0 -137 33zM274 948q43 -20 101 -20q61 0 113.5 22.5 t92.5 62.5t62.5 92.5t22.5 113.5q0 63 -25 116.5t-65.5 92t-96 59t-119.5 20.5q-23 0 -45 -5t-41 -13v-541zM285 0l639 1540h65l-641 -1540h-63zM580 326q0 86 44 160.5t117 121.5v-565q-74 45 -117.5 120t-43.5 163zM768 31v590q63 31 137 30q68 0 127.5 -25.5t104.5 -69.5 t70.5 -103t25.5 -127t-25.5 -128.5t-70.5 -104.5t-104.5 -69.5t-127.5 -25.5t-137 33zM805 55q43 -20 100 -20q61 0 113.5 22.5t92.5 62.5t62.5 92.5t22.5 113.5q0 63 -24.5 116.5t-65.5 92t-96.5 59t-118.5 20.5q-23 0 -45.5 -5t-40.5 -13v-541z" />
<glyph unicode="&#x26;" horiz-adv-x="1337" d="M49 582q0 147 68.5 278t187.5 217v-991q-119 88 -187.5 218t-68.5 278zM299 1223q0 66 24.5 124t67.5 101t101.5 68.5t125.5 25.5q61 0 103.5 -15.5t76 -41t63.5 -61t67 -74.5l-45 -37q-23 31 -50.5 61.5t-59.5 55t-69.5 40t-76.5 15.5q-55 0 -104.5 -20.5t-86.5 -57.5 t-58.5 -86t-21.5 -104q0 -90 60 -162l678 -817q98 121 114 276l60 -6q-12 -86 -47 -167t-91 -148l158 -193h-74q-29 39 -59.5 77t-62.5 73q-88 -86 -199 -132.5t-234 -46.5q-84 0 -163.5 23.5t-151.5 64.5v1000q-45 76 -45 164zM401 92q121 -63 256 -63q111 0 215.5 44 t182.5 122q-166 199 -327 394t-327 394v-891z" />
<glyph unicode="'" horiz-adv-x="503" d="M49 1339q0 86 59.5 144.5t145.5 58.5q29 0 55.5 -6t48.5 -23v-348q-51 -29 -104 -28q-86 0 -145.5 58t-59.5 144zM397 1036v445q29 -29 43.5 -65t14.5 -77v-303h-58z" />
<glyph unicode="(" horiz-adv-x="536" d="M49 586q0 231 60.5 440t193.5 399v-1628q-119 174 -186.5 376t-67.5 413zM344 -256v1735q23 33 48.5 62.5t53.5 57.5l41 -40q-18 -27 -41.5 -49.5t-44.5 -49.5v-1698q20 -23 44 -47t42 -51l-41 -41q-27 29 -53 58.5t-49 62.5z" />
<glyph unicode=")" horiz-adv-x="536" d="M49 -336q20 27 44 49.5t42 50.5v1696q-16 27 -39.5 51.5t-46.5 47.5l41 40q55 -57 103 -120v-1737q-25 -31 -49.5 -59.5t-53.5 -57.5zM233 -203v1628q254 -369 254 -819q0 -217 -65.5 -423t-188.5 -386z" />
<glyph unicode="*" horiz-adv-x="589" d="M49 1335v58h195l-99 170l50 28l98 -170l98 170l51 -30l-98 -168h197v-58h-199l98 -170l-49 -28l-96 168l-98 -168l-50 28l99 170h-197z" />
<glyph unicode="+" horiz-adv-x="1075" d="M49 745v58h461v459h57v-459h459v-58h-459v-460h-57v460h-461z" />
<glyph unicode="," horiz-adv-x="503" d="M49 152q0 86 59.5 144t145.5 58q29 0 55.5 -6t48.5 -22v-349q-25 -10 -50 -18t-54 -8q-43 0 -80 15.5t-64.5 42t-44 63.5t-16.5 80zM397 -233v526q29 -29 43.5 -64.5t14.5 -76.5v-385h-58z" />
<glyph unicode="-" horiz-adv-x="581" d="M49 549v57h483v-57h-483zM49 645v234h483v-234h-483z" />
<glyph unicode="." horiz-adv-x="503" d="M49 152q0 86 59.5 144t145.5 58q29 0 55.5 -6t48.5 -22v-349q-25 -10 -50 -18t-54 -8q-43 0 -80 15.5t-64.5 42t-44 63.5t-16.5 80zM399 10v283q29 -29 42.5 -65.5t13.5 -75.5q0 -80 -56 -142z" />
<glyph unicode="/" horiz-adv-x="473" d="M49 0l309 1540h66l-311 -1540h-64z" />
<glyph unicode="0" d="M49 770q0 170 67.5 321.5t192.5 268.5v-1180q-123 117 -191.5 268.5t-68.5 321.5zM346 147v1246q109 90 238 136t270 46q168 0 315.5 -62.5t256 -172t172 -256t63.5 -314.5t-63.5 -314.5t-173 -255t-256 -171t-314.5 -62.5q-139 0 -269 46t-239 134zM406 190 q96 -74 210.5 -114.5t237.5 -40.5q154 0 288 57.5t233.5 156.5t157.5 233t58 288t-57 288t-157.5 233.5t-234.5 156.5t-288 57q-123 0 -237.5 -40t-210.5 -113v-1162z" />
<glyph unicode="1" horiz-adv-x="606" d="M49 1245l391 277v-1522h-239v1280l-117 -82zM500 0v1563l57 39v-1602h-57z" />
<glyph unicode="2" horiz-adv-x="1325" d="M49 983q0 41 9.5 85t21.5 83q31 100 91 178t140 131t174.5 81t196.5 28q125 0 232.5 -51.5t187.5 -136.5t126 -195.5t48 -231.5l-617 -954h-278l776 1208q-72 147 -204 224t-294 77q-117 0 -217 -43t-174.5 -117.5t-118 -175t-43.5 -217.5q0 -150 75 -277.5t204 -203.5 l-31 -51q-156 90 -230.5 236.5t-74.5 322.5zM709 0l561 868q-8 -66 -33 -128t-59 -117l-365 -566h449v-57h-553z" />
<glyph unicode="3" horiz-adv-x="1325" d="M49 580q0 115 42 220t118 191l45 -37q-72 -78 -111 -174t-39 -200q0 -117 44.5 -218.5t120 -176t178 -118.5t217.5 -44q66 0 131 16t125 45v987q-121 63 -254 64q-18 0 -37 -1t-35 -6l-25 52l289 303h-500v57h635l-331 -348q84 0 163.5 -21.5t151.5 -66.5v-1053 q-72 -41 -150.5 -63.5t-162.5 -22.5q-127 0 -240 48t-196 131t-131 196t-48 240zM1016 78v1001q119 -86 189.5 -216t70.5 -277q0 -156 -65.5 -287t-194.5 -221z" />
<glyph unicode="4" horiz-adv-x="1091" d="M49 248l922 1378v-1321h71v-57h-71v-248h-60v1440l-753 -1135h454v602l240 363v-1270h-240v248h-563z" />
<glyph unicode="5" horiz-adv-x="1325" d="M49 580q0 43 7 87t20 85l55 -17q-25 -78 -25 -155q0 -115 44.5 -216.5t120 -177t177 -119.5t216.5 -44q66 0 131 16t125 45v987q-59 33 -125 48.5t-131 15.5q-129 0 -232.5 -54.5t-189.5 -134.5v594h645v-57h-588v-412q80 59 174 90t195 31q168 0 309 -88v-1053 q-72 -41 -150.5 -63.5t-162.5 -22.5q-127 0 -240 48t-196 131t-131 196t-48 240zM1016 76v1003q123 -88 191.5 -218t68.5 -281q0 -152 -67.5 -285t-192.5 -219z" />
<glyph unicode="6" horiz-adv-x="1323" d="M49 588q0 209 127 373l449 579h73l-317 -410q66 35 137.5 50.5t143.5 15.5q176 0 327 -94v-1036q-74 -47 -157.5 -70t-172.5 -23q-129 0 -240.5 47.5t-193.5 130t-129 195.5t-47 242zM104 584q0 -117 44.5 -218.5t120 -176t178 -118.5t217.5 -44q70 0 139 19.5t129 51.5 v971q-127 72 -273 72q-117 0 -217 -44t-176 -120t-119 -177.5t-43 -215.5zM1028 92v983q117 -88 181.5 -216t64.5 -275t-63.5 -276.5t-182.5 -215.5z" />
<glyph unicode="7" horiz-adv-x="991" d="M49 1483v57h785l-469 -1540h-252l450 1483h-514zM414 0l469 1540h59l-469 -1540h-59z" />
<glyph unicode="8" horiz-adv-x="1335" d="M49 580q0 162 79 302t218 224q-12 29 -16 58.5t-4 60.5q0 72 26.5 135t72.5 109.5t108.5 73t134.5 26.5t134 -26.5t108 -74t73 -110t27 -133.5q0 -12 -2 -30.5t-5.5 -38t-8.5 -37t-11 -27.5v-1045q-145 -84 -315 -84q-129 0 -242 48t-197 131t-132 196t-48 242zM106 580 q0 -117 44.5 -219.5t120 -179.5t178 -121t219.5 -44q139 0 258 64v997l-11 6q16 39 26.5 70t10.5 74q0 59 -22.5 111.5t-60.5 90t-90 60t-111 22.5t-111.5 -22.5t-90.5 -61t-60.5 -91t-22.5 -111.5q0 -76 39 -142q-145 -80 -230.5 -207.5t-85.5 -295.5zM1022 72v1013 q125 -88 194.5 -219.5t69.5 -285.5q0 -152 -70.5 -287t-193.5 -221z" />
<glyph unicode="9" horiz-adv-x="1325" d="M49 971q0 125 50.5 234.5t135 190.5t196.5 127t235 46q86 0 166.5 -21.5t152.5 -68.5v-1108l-287 -371h-71l315 410q-131 -66 -278 -66q-133 0 -246 49t-195 134t-128 199t-46 245zM106 983q0 -121 41 -226.5t115 -184t177.5 -125t226.5 -46.5q68 0 135 16.5t127 49.5 v979q-66 35 -128.5 50t-135.5 15q-86 0 -168 -26.5t-151 -73.5t-122 -113.5t-82 -148.5q-14 -37 -24.5 -81t-10.5 -85zM1024 422v1030q121 -86 186.5 -219t65.5 -281q0 -90 -19.5 -159.5t-54.5 -130t-81 -118t-97 -122.5z" />
<glyph unicode=":" horiz-adv-x="503" d="M49 152q0 86 59.5 144t145.5 58q29 0 55.5 -6t48.5 -22v-349q-25 -10 -50 -18t-54 -8q-43 0 -80 15.5t-64.5 42t-44 63.5t-16.5 80zM49 684q0 86 59.5 144.5t145.5 58.5q29 0 55.5 -6.5t48.5 -22.5v-348q-51 -29 -104 -29q-86 0 -145.5 58.5t-59.5 144.5zM399 10v283 q29 -29 42.5 -65.5t13.5 -75.5q0 -80 -56 -142zM399 543v282q29 -29 42.5 -65.5t13.5 -75.5q0 -80 -56 -141z" />
<glyph unicode=";" horiz-adv-x="503" d="M49 152q0 86 59.5 144t145.5 58q29 0 55.5 -6t48.5 -22v-349q-25 -10 -50 -18t-54 -8q-43 0 -80 15.5t-64.5 42t-44 63.5t-16.5 80zM49 684q0 86 59.5 144.5t145.5 58.5q29 0 55.5 -6.5t48.5 -22.5v-348q-51 -29 -104 -29q-86 0 -145.5 58.5t-59.5 144.5zM397 -233v526 q29 -29 43.5 -64.5t14.5 -76.5v-385h-58zM399 543v282q29 -29 42.5 -65.5t13.5 -75.5q0 -80 -56 -141z" />
<glyph unicode="&#x3c;" horiz-adv-x="1052" d="M49 750v51l955 418v-68l-863 -375l863 -377v-67z" />
<glyph unicode="=" horiz-adv-x="1077" d="M49 549v59h979v-59h-979zM49 942v57h979v-57h-979z" />
<glyph unicode="&#x3e;" horiz-adv-x="1052" d="M49 332v67l862 377l-862 375v68l955 -418v-51z" />
<glyph unicode="?" horiz-adv-x="1026" d="M49 1339q70 109 181.5 170.5t240.5 61.5q106 0 203 -43v-926q-12 -4 -28.5 -9t-27.5 -13v-193h-57v238l55 16v846q-72 25 -145 24q-115 0 -213 -53t-162 -149zM246 203q0 55 26.5 101t73.5 75h-65v278q45 -18 91 -29.5t93 -11.5q14 0 27.5 1t27.5 4v-609q-35 -12 -69 -12 q-41 0 -79 15.5t-65.5 43t-44 64.5t-16.5 80zM561 33v340q43 -29 66.5 -74t23.5 -96t-24.5 -96.5t-65.5 -73.5zM713 621v888q123 -66 193.5 -185.5t70.5 -258.5q0 -141 -70.5 -259t-193.5 -185z" />
<glyph unicode="@" horiz-adv-x="1439" d="M49 727q0 166 65.5 302t176 233.5t256 150.5t305.5 53q131 0 232.5 -45t169 -119.5t102.5 -173t35 -202.5q0 -90 -34 -191.5t-91.5 -185.5t-131 -139.5t-155.5 -55.5t-130 47.5t-48 133.5q-25 -35 -57.5 -68t-69.5 -59.5t-78 -43t-82 -16.5q-39 0 -76 20.5t-64.5 55.5 t-45 81t-17.5 97q0 102 47.5 206.5t125 188.5t177 137.5t201.5 53.5q59 0 96 -41t41 -100l62 135h153l-280 -633q-14 -33 -14 -68q0 -31 14 -56.5t53 -25.5q37 0 75 21.5t70.5 50.5t56 57.5t34.5 42.5q59 86 87.5 176.5t28.5 178.5q0 100 -34.5 189t-101 155.5t-165 105.5 t-227.5 39q-137 0 -254 -63.5t-203 -164t-134 -227t-48 -251.5q0 -115 38 -223.5t126 -198.5t195.5 -131t224.5 -41q84 0 167 22.5t157.5 63.5t139 99t111.5 130l41 -29q-55 -84 -126.5 -147.5t-153.5 -104t-171.5 -61t-179.5 -20.5q-133 0 -257 43t-221 125.5t-155.5 206.5 t-58.5 284zM459 508q0 -51 17.5 -80t51.5 -29q59 0 116.5 45t107 108.5t86.5 134.5t57 120q6 18 15.5 44t17.5 56.5t14 62t6 60.5q0 41 -18.5 74t-71.5 33t-104.5 -32t-95.5 -85t-80.5 -119.5t-63.5 -137.5t-41 -137.5t-14 -117.5z" />
<glyph unicode="A" horiz-adv-x="1198" d="M49 152v55h119l307 909l375 -1116h-62l-49 152h-530l-49 -152h-62l52 152h-101zM229 207h490l-246 727zM500 1188l118 346l531 -1534h-238z" />
<glyph unicode="B" horiz-adv-x="1241" d="M49 1485v55h328v-1540h-234v1485h-94zM414 0v1540h168q86 0 144 -58.5t58 -144.5q0 -45 -19.5 -87t-53.5 -70q104 -20 193 -73.5t152.5 -132.5t99.5 -176.5t36 -203.5q0 -123 -47 -231.5t-128 -189.5t-189.5 -127t-231.5 -46h-182zM473 59h123q111 0 209 42t171 114 t116 170t43 209q0 113 -42 211t-115 172t-171 116t-211 42h-123v-1076zM473 1192h109q59 0 102 43t43 102t-43 103.5t-102 44.5h-109v-293z" />
<glyph unicode="C" horiz-adv-x="1421" d="M49 786q0 162 68.5 309.5t184.5 258.5v-1166q-127 121 -190 272.5t-63 325.5zM340 154v1235q109 88 239 135t269 47q145 0 280.5 -49t243.5 -148l-37 -45q-100 92 -226 137t-261 45q-123 0 -237.5 -38.5t-211.5 -112.5v-1180q96 -74 212 -112.5t237 -38.5q135 0 261 47 t226 135l37 -45q-111 -96 -245 -144.5t-279 -48.5q-139 0 -269 46.5t-239 134.5z" />
<glyph unicode="D" horiz-adv-x="1384" d="M49 1485v55h330v-1540h-234v1485h-96zM416 0v1540h147q160 0 300.5 -60.5t244.5 -165t165.5 -244.5t61.5 -300t-61.5 -300t-167 -244.5t-245.5 -165t-298 -60.5h-147zM475 59h88q147 0 276.5 55.5t226.5 153t153.5 226.5t56.5 276t-56.5 277.5t-153.5 227.5t-226 153.5 t-277 56.5h-88v-1426z" />
<glyph unicode="E" horiz-adv-x="1011" d="M49 1485v55h330v-1540h-236v1485h-94zM418 0v1540h545v-55h-486v-293h379v-57h-379v-1076h486v-59h-545z" />
<glyph unicode="F" horiz-adv-x="989" d="M49 1485v55h328v-1540h-234v1485h-94zM418 0v1540h522v-55h-465v-293h381v-57h-381v-1135h-57z" />
<glyph unicode="G" horiz-adv-x="1697" d="M49 760q0 172 61.5 319.5t184.5 266.5v-1151q-115 111 -180.5 258t-65.5 307zM334 160v1220q98 84 230 136.5t261 52.5q158 0 294 -46t255 -151l-37 -45q-102 92 -229 138t-262 46q-123 0 -240 -42t-215 -115v-1168q98 -76 216 -116.5t243 -40.5q143 0 274 53 t231.5 147.5t163 220t70.5 271.5h-514v55h574q0 -170 -63.5 -316.5t-173 -254t-255 -170t-309.5 -62.5q-141 0 -273.5 47.5t-240.5 139.5z" />
<glyph unicode="H" horiz-adv-x="1019" d="M49 1485v55h328v-1540h-234v1485h-94zM422 0v1540h57v-348h436v348h56v-1540h-56v1135h-436v-1135h-57z" />
<glyph unicode="I" horiz-adv-x="528" d="M49 1485v55h328v-1540h-234v1485h-94zM422 0v1540h57v-1540h-57z" />
<glyph unicode="J" horiz-adv-x="915" d="M49 397h57q0 -72 28 -136t75 -111.5t111.5 -75t136.5 -27.5t136 27.5t112.5 75t76 111t27.5 136.5v1143h57v-1143q0 -86 -31.5 -159.5t-87 -129t-130 -87t-160.5 -31.5q-84 0 -159 31.5t-130 87t-87 130t-32 158.5zM430 1485v55h334v-1130q-4 -115 -68.5 -194 t-163.5 -116v1385h-102z" />
<glyph unicode="K" horiz-adv-x="948" d="M49 1485v55h328v-1540h-234v1485h-94zM422 0v1540h57v-1081q37 -4 74 -13l262 1094h59l-266 -1112q66 -25 119 -69t92 -101t59.5 -123.5t20.5 -134.5h-57q0 74 -28 144.5t-77 126t-115.5 90t-142.5 38.5v-399h-57z" />
<glyph unicode="L" horiz-adv-x="1007" d="M49 1485v55h328v-1540h-234v1485h-94zM422 0v1540h55v-1481h481v-59h-536z" />
<glyph unicode="M" horiz-adv-x="1425" d="M49 1485v55h342v-1540h-233v1485h-109zM434 0v1540h15q90 0 163.5 -35t124.5 -108v143h234v-1540h-234v1223q0 49 -19.5 94t-53 80t-77.5 57.5t-93 28.5v-1483h-60zM1016 0v1540h14q72 0 134.5 -23.5t109.5 -67.5t74.5 -104.5t27.5 -134.5v-1210h-59v1210 q0 51 -18.5 98.5t-51.5 84.5t-78 60.5t-96 29.5v-1483h-57z" />
<glyph unicode="N" horiz-adv-x="831" d="M49 1485v55h328v-1540h-234v1485h-94zM422 0v1540q98 0 175 -35t128 -108v143h57v-1540h-57v1210q0 51 -18.5 98.5t-52 84.5t-79 60.5t-96.5 29.5v-1483h-57z" />
<glyph unicode="O" d="M49 770q0 170 67.5 321.5t192.5 268.5v-1180q-123 117 -191.5 268.5t-68.5 321.5zM346 147v1246q109 90 238 136t270 46q168 0 315.5 -62.5t256 -172t172 -256t63.5 -314.5t-63.5 -314.5t-173 -255t-256 -171t-314.5 -62.5q-139 0 -269 46t-239 134zM406 190 q96 -74 210.5 -114.5t237.5 -40.5q154 0 288 57.5t233.5 156.5t157.5 233t58 288t-57 288t-157.5 233.5t-234.5 156.5t-288 57q-123 0 -237.5 -40t-210.5 -113v-1162z" />
<glyph unicode="P" horiz-adv-x="1200" d="M49 1485v55h334v-1540h-242v1485h-92zM426 0v1540q160 0 293 -54t229 -148.5t149.5 -221.5t53.5 -272q0 -141 -51 -265t-141.5 -218.5t-212 -151.5t-263.5 -64v-145h-57zM483 205q129 6 240 58t193.5 138t130 200t47.5 243t-47.5 242.5t-130 199.5t-193.5 138.5 t-240 58.5v-1278z" />
<glyph unicode="Q" horiz-adv-x="1697" d="M49 772q0 166 66.5 317.5t189.5 266.5v-1170q-125 115 -190.5 266.5t-65.5 319.5zM342 152v1237q109 90 237 136t269 46q166 0 312.5 -62.5t255 -170t171 -254t62.5 -312.5q0 -156 -56.5 -297t-165.5 -254l134 -221h-70l-105 178q-113 -102 -250 -154.5t-288 -52.5 q-139 0 -268 46t-238 135zM401 178q96 -72 211 -110.5t236 -38.5q154 0 290 58t236.5 158.5t158.5 236.5t58 290t-58 289t-159.5 235.5t-237 157.5t-288.5 57q-121 0 -235.5 -37.5t-211.5 -111.5v-1184z" />
<glyph unicode="R" horiz-adv-x="1200" d="M49 1485v55h332v-1540h-242v1485h-90zM424 0v1540h29q143 0 271 -54t222 -149.5t149.5 -222.5t55.5 -270q0 -168 -75 -314.5t-210 -246.5l170 -283h-67l-150 250q-158 -94 -338 -105v-145h-57zM481 205q129 6 239.5 58t193.5 138t130.5 200t47.5 243t-47.5 242.5 t-130.5 199.5t-193.5 138.5t-239.5 58.5v-1278z" />
<glyph unicode="S" horiz-adv-x="1320" d="M49 582h57q0 -115 43.5 -216.5t118 -176t176 -117.5t215.5 -43q66 0 131.5 15t124.5 48v955l-256 94q-111 41 -158.5 106.5t-47.5 130.5q0 78 55 135.5t149 57.5q66 0 121.5 -37t79.5 -98l-53 -21q-18 45 -59 70.5t-89 25.5q-70 0 -106.5 -37.5t-36.5 -91.5q0 -49 36 -98 t109 -78l314 -121v-1028q-72 -41 -151 -63.5t-163 -22.5q-127 0 -237.5 48.5t-193.5 131t-131 193.5t-48 238zM1010 82v983q123 -86 192.5 -209.5t69.5 -273.5q0 -152 -69.5 -283t-192.5 -217z" />
<glyph unicode="T" horiz-adv-x="1056" d="M49 1485v55h543v-1540h-240v1485h-303zM633 0v1540h375v-55h-320v-1485h-55z" />
<glyph unicode="U" horiz-adv-x="925" d="M49 397v1143h70v-1143q0 -72 26.5 -135t73.5 -110.5t110.5 -74t135.5 -26.5t134.5 27.5t109.5 75t73.5 110t26.5 133.5v1143h68v-1143q0 -86 -32 -160.5t-88.5 -131t-131 -89t-160.5 -32.5t-161 32.5t-132 88t-90 131t-33 161.5zM528 98v1442h240v-1139q0 -53 -18 -103 t-50 -90t-76 -68.5t-96 -41.5z" />
<glyph unicode="V" horiz-adv-x="1167" d="M49 1540h256l408 -1190l-127 -373zM358 1540h60l319 -942l320 942h61l-381 -1118z" />
<glyph unicode="W" horiz-adv-x="1708" d="M49 1540h256l410 -1190l-127 -373zM358 1540h62l317 -942l86 254l-235 688h256l407 -1190l-127 -373l-268 785l-117 -340zM897 1540h59l320 -942l321 942h62l-383 -1118z" />
<glyph unicode="X" horiz-adv-x="1155" d="M49 1540h70l350 -520l254 520h65l-311 -635zM70 0l757 1540h260l-430 -872l449 -668h-70l-409 606l-297 -606h-260z" />
<glyph unicode="Y" horiz-adv-x="1153" d="M49 1540h258l395 -899v-641h-239v606zM358 1540h64l350 -790l270 790h62l-299 -874v-666h-60v666z" />
<glyph unicode="Z" horiz-adv-x="1122" d="M49 0l635 1485h-588v55h858l-659 -1540h-246zM350 0l660 1540h63l-637 -1483h631v-57h-717z" />
<glyph unicode="[" horiz-adv-x="483" d="M49 -356v1935h234v-1935h-234zM319 -356v1935h115v-57h-55v-1821h55v-57h-115z" />
<glyph unicode="\" horiz-adv-x="473" d="M49 1540h66l309 -1540h-64z" />
<glyph unicode="]" horiz-adv-x="483" d="M49 -299h55v1821h-55v57h115v-1935h-115v57zM201 -356v1935h233v-1935h-233z" />
<glyph unicode="^" horiz-adv-x="1024" />
<glyph unicode="_" horiz-adv-x="1024" d="M0 -20h1024v-58h-1024v58z" />
<glyph unicode="`" horiz-adv-x="436" d="M49 1741l31 51l307 -190l-31 -50z" />
<glyph unicode="a" horiz-adv-x="1198" d="M49 152v55h119l307 909l375 -1116h-62l-49 152h-530l-49 -152h-62l52 152h-101zM229 207h490l-246 727zM500 1188l118 346l531 -1534h-238z" />
<glyph unicode="b" horiz-adv-x="1241" d="M49 1485v55h328v-1540h-234v1485h-94zM414 0v1540h168q86 0 144 -58.5t58 -144.5q0 -45 -19.5 -87t-53.5 -70q104 -20 193 -73.5t152.5 -132.5t99.5 -176.5t36 -203.5q0 -123 -47 -231.5t-128 -189.5t-189.5 -127t-231.5 -46h-182zM473 59h123q111 0 209 42t171 114 t116 170t43 209q0 113 -42 211t-115 172t-171 116t-211 42h-123v-1076zM473 1192h109q59 0 102 43t43 102t-43 103.5t-102 44.5h-109v-293z" />
<glyph unicode="c" horiz-adv-x="1421" d="M49 786q0 162 68.5 309.5t184.5 258.5v-1166q-127 121 -190 272.5t-63 325.5zM340 154v1235q109 88 239 135t269 47q145 0 280.5 -49t243.5 -148l-37 -45q-100 92 -226 137t-261 45q-123 0 -237.5 -38.5t-211.5 -112.5v-1180q96 -74 212 -112.5t237 -38.5q135 0 261 47 t226 135l37 -45q-111 -96 -245 -144.5t-279 -48.5q-139 0 -269 46.5t-239 134.5z" />
<glyph unicode="d" horiz-adv-x="1384" d="M49 1485v55h330v-1540h-234v1485h-96zM416 0v1540h147q160 0 300.5 -60.5t244.5 -165t165.5 -244.5t61.5 -300t-61.5 -300t-167 -244.5t-245.5 -165t-298 -60.5h-147zM475 59h88q147 0 276.5 55.5t226.5 153t153.5 226.5t56.5 276t-56.5 277.5t-153.5 227.5t-226 153.5 t-277 56.5h-88v-1426z" />
<glyph unicode="e" horiz-adv-x="1011" d="M49 1485v55h330v-1540h-236v1485h-94zM418 0v1540h545v-55h-486v-293h379v-57h-379v-1076h486v-59h-545z" />
<glyph unicode="f" horiz-adv-x="989" d="M49 1485v55h328v-1540h-234v1485h-94zM418 0v1540h522v-55h-465v-293h381v-57h-381v-1135h-57z" />
<glyph unicode="g" horiz-adv-x="1697" d="M49 760q0 172 61.5 319.5t184.5 266.5v-1151q-115 111 -180.5 258t-65.5 307zM334 160v1220q98 84 230 136.5t261 52.5q158 0 294 -46t255 -151l-37 -45q-102 92 -229 138t-262 46q-123 0 -240 -42t-215 -115v-1168q98 -76 216 -116.5t243 -40.5q143 0 274 53 t231.5 147.5t163 220t70.5 271.5h-514v55h574q0 -170 -63.5 -316.5t-173 -254t-255 -170t-309.5 -62.5q-141 0 -273.5 47.5t-240.5 139.5z" />
<glyph unicode="h" horiz-adv-x="1019" d="M49 1485v55h328v-1540h-234v1485h-94zM422 0v1540h57v-348h436v348h56v-1540h-56v1135h-436v-1135h-57z" />
<glyph unicode="i" horiz-adv-x="528" d="M49 1485v55h328v-1540h-234v1485h-94zM422 0v1540h57v-1540h-57z" />
<glyph unicode="j" horiz-adv-x="915" d="M49 397h57q0 -72 28 -136t75 -111.5t111.5 -75t136.5 -27.5t136 27.5t112.5 75t76 111t27.5 136.5v1143h57v-1143q0 -86 -31.5 -159.5t-87 -129t-130 -87t-160.5 -31.5q-84 0 -159 31.5t-130 87t-87 130t-32 158.5zM430 1485v55h334v-1130q-4 -115 -68.5 -194 t-163.5 -116v1385h-102z" />
<glyph unicode="k" horiz-adv-x="948" d="M49 1485v55h328v-1540h-234v1485h-94zM422 0v1540h57v-1081q37 -4 74 -13l262 1094h59l-266 -1112q66 -25 119 -69t92 -101t59.5 -123.5t20.5 -134.5h-57q0 74 -28 144.5t-77 126t-115.5 90t-142.5 38.5v-399h-57z" />
<glyph unicode="l" horiz-adv-x="1007" d="M49 1485v55h328v-1540h-234v1485h-94zM422 0v1540h55v-1481h481v-59h-536z" />
<glyph unicode="m" horiz-adv-x="1425" d="M49 1485v55h342v-1540h-233v1485h-109zM434 0v1540h15q90 0 163.5 -35t124.5 -108v143h234v-1540h-234v1223q0 49 -19.5 94t-53 80t-77.5 57.5t-93 28.5v-1483h-60zM1016 0v1540h14q72 0 134.5 -23.5t109.5 -67.5t74.5 -104.5t27.5 -134.5v-1210h-59v1210 q0 51 -18.5 98.5t-51.5 84.5t-78 60.5t-96 29.5v-1483h-57z" />
<glyph unicode="n" horiz-adv-x="831" d="M49 1485v55h328v-1540h-234v1485h-94zM422 0v1540q98 0 175 -35t128 -108v143h57v-1540h-57v1210q0 51 -18.5 98.5t-52 84.5t-79 60.5t-96.5 29.5v-1483h-57z" />
<glyph unicode="o" d="M49 770q0 170 67.5 321.5t192.5 268.5v-1180q-123 117 -191.5 268.5t-68.5 321.5zM346 147v1246q109 90 238 136t270 46q168 0 315.5 -62.5t256 -172t172 -256t63.5 -314.5t-63.5 -314.5t-173 -255t-256 -171t-314.5 -62.5q-139 0 -269 46t-239 134zM406 190 q96 -74 210.5 -114.5t237.5 -40.5q154 0 288 57.5t233.5 156.5t157.5 233t58 288t-57 288t-157.5 233.5t-234.5 156.5t-288 57q-123 0 -237.5 -40t-210.5 -113v-1162z" />
<glyph unicode="p" horiz-adv-x="1200" d="M49 1485v55h334v-1540h-242v1485h-92zM426 0v1540q160 0 293 -54t229 -148.5t149.5 -221.5t53.5 -272q0 -141 -51 -265t-141.5 -218.5t-212 -151.5t-263.5 -64v-145h-57zM483 205q129 6 240 58t193.5 138t130 200t47.5 243t-47.5 242.5t-130 199.5t-193.5 138.5 t-240 58.5v-1278z" />
<glyph unicode="q" horiz-adv-x="1697" d="M49 772q0 166 66.5 317.5t189.5 266.5v-1170q-125 115 -190.5 266.5t-65.5 319.5zM342 152v1237q109 90 237 136t269 46q166 0 312.5 -62.5t255 -170t171 -254t62.5 -312.5q0 -156 -56.5 -297t-165.5 -254l134 -221h-70l-105 178q-113 -102 -250 -154.5t-288 -52.5 q-139 0 -268 46t-238 135zM401 178q96 -72 211 -110.5t236 -38.5q154 0 290 58t236.5 158.5t158.5 236.5t58 290t-58 289t-159.5 235.5t-237 157.5t-288.5 57q-121 0 -235.5 -37.5t-211.5 -111.5v-1184z" />
<glyph unicode="r" horiz-adv-x="1200" d="M49 1485v55h332v-1540h-242v1485h-90zM424 0v1540h29q143 0 271 -54t222 -149.5t149.5 -222.5t55.5 -270q0 -168 -75 -314.5t-210 -246.5l170 -283h-67l-150 250q-158 -94 -338 -105v-145h-57zM481 205q129 6 239.5 58t193.5 138t130.5 200t47.5 243t-47.5 242.5 t-130.5 199.5t-193.5 138.5t-239.5 58.5v-1278z" />
<glyph unicode="s" horiz-adv-x="1320" d="M49 582h57q0 -115 43.5 -216.5t118 -176t176 -117.5t215.5 -43q66 0 131.5 15t124.5 48v955l-256 94q-111 41 -158.5 106.5t-47.5 130.5q0 78 55 135.5t149 57.5q66 0 121.5 -37t79.5 -98l-53 -21q-18 45 -59 70.5t-89 25.5q-70 0 -106.5 -37.5t-36.5 -91.5q0 -49 36 -98 t109 -78l314 -121v-1028q-72 -41 -151 -63.5t-163 -22.5q-127 0 -237.5 48.5t-193.5 131t-131 193.5t-48 238zM1010 82v983q123 -86 192.5 -209.5t69.5 -273.5q0 -152 -69.5 -283t-192.5 -217z" />
<glyph unicode="t" horiz-adv-x="1056" d="M49 1485v55h543v-1540h-240v1485h-303zM633 0v1540h375v-55h-320v-1485h-55z" />
<glyph unicode="u" horiz-adv-x="925" d="M49 397v1143h70v-1143q0 -72 26.5 -135t73.5 -110.5t110.5 -74t135.5 -26.5t134.5 27.5t109.5 75t73.5 110t26.5 133.5v1143h68v-1143q0 -86 -32 -160.5t-88.5 -131t-131 -89t-160.5 -32.5t-161 32.5t-132 88t-90 131t-33 161.5zM528 98v1442h240v-1139q0 -53 -18 -103 t-50 -90t-76 -68.5t-96 -41.5z" />
<glyph unicode="v" horiz-adv-x="1167" d="M49 1540h256l408 -1190l-127 -373zM358 1540h60l319 -942l320 942h61l-381 -1118z" />
<glyph unicode="w" horiz-adv-x="1708" d="M49 1540h256l410 -1190l-127 -373zM358 1540h62l317 -942l86 254l-235 688h256l407 -1190l-127 -373l-268 785l-117 -340zM897 1540h59l320 -942l321 942h62l-383 -1118z" />
<glyph unicode="x" horiz-adv-x="1155" d="M49 1540h70l350 -520l254 520h65l-311 -635zM70 0l757 1540h260l-430 -872l449 -668h-70l-409 606l-297 -606h-260z" />
<glyph unicode="y" horiz-adv-x="1153" d="M49 1540h258l395 -899v-641h-239v606zM358 1540h64l350 -790l270 790h62l-299 -874v-666h-60v666z" />
<glyph unicode="z" horiz-adv-x="1122" d="M49 0l635 1485h-588v55h858l-659 -1540h-246zM350 0l660 1540h63l-637 -1483h631v-57h-717z" />
<glyph unicode="{" horiz-adv-x="653" d="M49 604v51q39 6 79 21.5t71.5 40t51 58.5t19.5 77q0 70 -22.5 144.5t-22.5 156.5q0 78 32 144.5t84 116.5t120.5 82t142.5 42v-49q-45 -8 -85 -26.5t-70.5 -47.5t-49 -66.5t-18.5 -86.5q0 -74 18.5 -152t18.5 -156q0 -61 -20.5 -111t-55.5 -90t-82 -70t-100 -50 q49 -23 96 -54.5t83 -73.5t57.5 -92.5t21.5 -109.5q0 -82 -18.5 -156.5t-18.5 -148.5q0 -49 18.5 -87t49 -66.5t70.5 -48t85 -29.5v-52q-74 12 -142.5 45t-120.5 83.5t-83 116t-31 142.5q0 78 21.5 151t21.5 148q0 45 -19.5 80t-50 59.5t-70.5 40t-81 23.5z" />
<glyph unicode="|" horiz-adv-x="1024" />
<glyph unicode="}" horiz-adv-x="653" d="M49 -233q45 10 85 29.5t71 48t49 66.5t18 87q0 74 -18 148.5t-18 156.5q0 59 21.5 109.5t57 92.5t82.5 73.5t97 54.5q-53 20 -100.5 50t-82.5 70t-55 90t-20 111q0 78 18 156t18 152q0 49 -18 86.5t-49 66.5t-71 47.5t-85 26.5v49q74 -10 142.5 -42t121 -82t84 -116.5 t31.5 -144.5q0 -82 -22.5 -156.5t-22.5 -144.5q0 -43 19.5 -77t51 -58.5t71.5 -39.5t79 -22v-51q-41 -8 -81 -23.5t-70.5 -40t-50 -59.5t-19.5 -80q0 -76 21.5 -148.5t21.5 -150.5t-30.5 -143t-83 -115.5t-121 -83t-142.5 -45.5v52z" />
<glyph unicode="~" horiz-adv-x="1024" />
<glyph unicode="&#xa1;" horiz-adv-x="503" d="M49 936q0 86 59.5 144.5t145.5 58.5q16 0 34.5 -2t35.5 -11v-1536h-240v1170h66q-47 29 -74 75t-27 101zM365 -410v1162h57v-1162h-57zM365 766v340q43 -29 66.5 -74t23.5 -96q0 -53 -24.5 -97t-65.5 -73z" />
<glyph unicode="&#xa2;" horiz-adv-x="1132" d="M49 772q0 152 62.5 279t185.5 217v-979q-115 86 -181.5 214t-66.5 269zM336 262v1032q59 39 123.5 60.5t134.5 29.5v156h55v-149q123 0 234.5 -43t199.5 -129l-41 -41q-76 74 -172 113.5t-202 39.5h-19v-1106h19q104 0 201.5 41t172.5 113l41 -41q-86 -84 -195.5 -127 t-230.5 -43h-8v-168h-55v172q-139 12 -258 90zM393 293q47 -27 97.5 -42t103.5 -22v1100q-106 -12 -201 -65v-971z" />
<glyph unicode="&#xa3;" horiz-adv-x="1300" d="M49 0v68h115l127 481h-242v69h260q12 53 26.5 109.5t34 128.5t45 167t60.5 228q18 68 57 125.5t92.5 97t118 62.5t136.5 23q119 0 221 -67t151 -175l-61 -29q-43 92 -128 146.5t-188 54.5q-59 0 -113 -18.5t-98.5 -52.5t-76 -81t-45.5 -104l-305 -1165h47 q78 291 151.5 578.5t153.5 576.5q29 98 107.5 159.5t185.5 61.5l-217 -826h239v-69h-258l-127 -481h619v-68h-1088z" />
<glyph unicode="&#xa5;" horiz-adv-x="1153" d="M49 1540h60l272 -792l350 792h62l-385 -876v-664h-60v492h-223v57h223v65h-223v60h221zM449 0v641l397 899h258l-385 -866h162v-60h-187l-4 -8v-57h191v-57h-191v-492h-241z" />
<glyph unicode="&#xa6;" horiz-adv-x="1024" />
<glyph unicode="&#xa8;" horiz-adv-x="575" d="M49 1659q0 47 34 81t81 34t81 -34t34 -81t-34 -81t-81 -34t-81 34t-34 81zM109 1659q0 -23 16 -40t39 -17t40 17t17 40t-17.5 40t-39.5 17q-23 0 -39 -17.5t-16 -39.5zM297 1659q0 47 34 81t81 34t80.5 -34t33.5 -81t-33.5 -81t-80.5 -34t-81 34t-34 81zM352 1659 q0 -23 18.5 -40t41.5 -17t39 17t16 40t-16.5 40t-38.5 17q-23 0 -41.5 -17.5t-18.5 -39.5z" />
<glyph unicode="&#xa9;" horiz-adv-x="1622" d="M49 770q0 158 59.5 297t163 242.5t242.5 163t297 59.5t297 -59.5t242.5 -163t163 -242.5t59.5 -297t-59.5 -297t-163 -242.5t-242.5 -163t-297 -59.5t-297 59.5t-242.5 163t-163 242.5t-59.5 297zM98 770q0 -147 56.5 -277.5t152.5 -226.5t226.5 -152.5t277.5 -56.5 t277.5 56.5t226.5 152.5t152.5 226.5t56.5 277.5t-56.5 277.5t-152.5 226.5t-226.5 152.5t-277.5 56.5t-277.5 -56.5t-226.5 -152.5t-152.5 -226.5t-56.5 -277.5zM211 776q0 125 52 237.5t143 198.5v-893q-98 92 -146.5 208t-48.5 249zM434 293v946q82 66 182.5 102.5 t206.5 36.5q111 0 214.5 -37.5t187.5 -113.5l-29 -33q-78 70 -173 104.5t-200 34.5q-193 0 -344 -116v-906q74 -55 163 -84.5t181 -29.5q104 0 199.5 35.5t173.5 103.5l29 -35q-84 -72 -187.5 -109.5t-214.5 -37.5q-106 0 -206.5 35.5t-182.5 103.5z" />
<glyph unicode="&#xaa;" horiz-adv-x="641" d="M49 580v723q0 55 21.5 105t58.5 87t86 58.5t104 21.5v-995h-57v235h-143v-235h-70zM119 877h143v620q-66 -20 -104.5 -73.5t-38.5 -120.5v-426zM358 580v993q100 -16 167 -92t67 -178v-723h-234z" />
<glyph unicode="&#xab;" horiz-adv-x="1185" d="M49 762q14 35 42 83t57.5 100t59.5 101.5t50 86.5h66l-209 -371l207 -365h-68q-6 10 -22.5 40t-39 69t-47 82t-46 80t-36 62.5t-14.5 31.5zM166 762q14 35 42 83t57.5 100t59 101.5t50.5 86.5h291l-211 -371l207 -365h-291q-6 10 -22.5 40t-39 69t-47 82t-46 80t-36 62.5 t-14.5 31.5zM520 762q14 35 42 83t57.5 100t59.5 101.5t50 86.5h66l-209 -371l207 -365h-68q-6 10 -22.5 40t-39 69t-47 82t-46 80t-36 62.5t-14.5 31.5zM637 762q14 35 42 83t57.5 100t59 101.5t50.5 86.5h291l-211 -371l207 -365h-291q-6 10 -22.5 40t-39 69t-47 82 t-46 80t-36 62.5t-14.5 31.5z" />
<glyph unicode="&#xac;" horiz-adv-x="1030" d="M49 745v60h932v-270h-57v210h-875z" />
<glyph unicode="&#xad;" horiz-adv-x="581" d="M49 549v57h483v-57h-483zM49 645v234h483v-234h-483z" />
<glyph unicode="&#xae;" horiz-adv-x="778" d="M49 1198q0 70 26.5 132.5t73 108.5t107.5 72.5t133 26.5q70 0 132.5 -26.5t108.5 -72.5t72.5 -108.5t26.5 -132.5q0 -72 -26.5 -133t-72.5 -107.5t-108.5 -73t-132.5 -26.5q-72 0 -133 26.5t-107.5 73t-73 107.5t-26.5 133zM84 1198q0 -63 23.5 -118.5t65.5 -97.5 t97.5 -65.5t118.5 -23.5t118.5 23.5t96.5 65.5t65.5 97.5t24.5 118.5t-24.5 118.5t-65.5 96.5t-96 65.5t-119 24.5q-63 0 -118.5 -24.5t-97.5 -65.5t-65.5 -96.5t-23.5 -118.5zM221 1399v39h117v-465h-92v426h-25zM367 973v465h20q43 0 81 -16.5t67.5 -45t46 -67.5t16.5 -82 q0 -47 -21.5 -90t-58.5 -76q14 -20 28.5 -45t26.5 -43h-45l-41 69q-20 -12 -40.5 -18t-40.5 -10v-41h-39zM406 1055q68 4 109.5 54t41.5 118q0 66 -42 117t-109 55v-344z" />
<glyph unicode="&#xaf;" horiz-adv-x="458" d="M49 1610v67h361v-67h-361z" />
<glyph unicode="&#xb0;" horiz-adv-x="497" d="M49 1337q0 84 58.5 142.5t142.5 58.5q41 0 76.5 -15.5t63.5 -43t43.5 -64.5t15.5 -78t-15.5 -76.5t-43.5 -63.5t-63.5 -43t-76.5 -15t-78 15t-64.5 43t-43 63.5t-15.5 76.5zM109 1337q0 -59 40.5 -100t100.5 -41q59 0 100 41t41 100t-41 100.5t-100 41.5t-100 -41 t-41 -101z" />
<glyph unicode="&#xb1;" horiz-adv-x="1077" d="M49 0v59h979v-59h-979zM49 745v60h461v459h57v-459h461v-60h-461v-460h-57v460h-461z" />
<glyph unicode="&#xb2;" horiz-adv-x="790" d="M49 1212q0 23 6 47.5t13 47.5q18 55 52 99t78 73.5t97 45t111 15.5q70 0 131 -28.5t106 -75.5t70.5 -109.5t27.5 -130.5l-348 -537h-155l436 678q-41 84 -115 128t-166 44q-66 0 -122 -24.5t-98 -66.5t-66.5 -99t-24.5 -123q0 -84 42 -155.5t116 -114.5l-19 -29 q-88 51 -130 133t-42 182zM422 659l315 488q-8 -72 -51 -137l-207 -318h252v-33h-309z" />
<glyph unicode="&#xb3;" horiz-adv-x="790" d="M49 1001q0 66 24.5 125.5t67.5 106.5l25 -21q-41 -43 -62.5 -97t-21.5 -114q0 -66 24.5 -123t67.5 -99t99.5 -66.5t121.5 -24.5q76 0 146 35v555q-66 35 -144 35h-20t-21 -2l-12 28l162 170h-281v33h357l-187 -196q47 0 92 -12.5t84 -37.5v-591q-78 -49 -176 -50 q-72 0 -134 28t-109.5 75t-75 109.5t-27.5 133.5zM594 719v563q66 -47 106.5 -121t40.5 -157q0 -86 -37.5 -160t-109.5 -125z" />
<glyph unicode="&#xb4;" horiz-adv-x="436" d="M49 1602l307 190l31 -51l-307 -189z" />
<glyph unicode="&#xb6;" horiz-adv-x="944" d="M49 1186q0 74 27.5 138.5t76 112.5t113 75.5t137.5 27.5h492v-43h-61q-35 0 -57.5 -23.5t-22.5 -56.5v-1622h-84v1680h-138v-1680h-79v1036h-50q-74 0 -138 28t-112.5 76t-76 112.5t-27.5 138.5z" />
<glyph unicode="&#xb7;" horiz-adv-x="503" d="M49 745q0 86 59.5 144.5t145.5 58.5q29 0 55.5 -6t48.5 -22v-349q-51 -29 -104 -28q-86 0 -145.5 58t-59.5 144zM399 604v283q29 -29 42.5 -66t13.5 -76q0 -80 -56 -141z" />
<glyph unicode="&#xb8;" horiz-adv-x="442" d="M49 -272h176q37 0 68 11t31 52t-29 52.5t-64 11.5h-57l105 192l61 -35l-51 -94q47 -8 75.5 -45t28.5 -84q0 -53 -39 -92t-92 -39h-213v70z" />
<glyph unicode="&#xb9;" horiz-adv-x="382" d="M49 1348l219 155v-856h-135v721l-65 -47zM301 647v879l33 20v-899h-33z" />
<glyph unicode="&#xba;" horiz-adv-x="1118" d="M49 1059q0 137 68.5 254t185.5 188v-883q-117 70 -185.5 187t-68.5 254zM342 598v924q51 23 105.5 36t109.5 13q106 0 199.5 -40t163 -109.5t109.5 -163t40 -199.5t-40 -199.5t-109.5 -162t-162.5 -108.5t-200 -40q-55 0 -109.5 13t-105.5 36zM399 637q74 -31 158 -31 q94 0 177 35t144.5 96.5t97.5 144.5t36 177q0 100 -38 184t-102.5 143.5t-150.5 92t-184 32.5q-35 0 -71 -8t-67 -20v-846z" />
<glyph unicode="&#xbb;" horiz-adv-x="1185" d="M49 1133h291q20 -37 50 -86.5t59.5 -101.5t56 -100t43.5 -83q0 -6 -14.5 -31.5t-36 -62.5t-46 -80t-47 -82t-39 -68.5t-22.5 -40.5h-291l207 365zM391 1133h66q20 -37 50 -86.5t59.5 -101.5t56 -100t43.5 -83q-2 -6 -15.5 -31.5t-35 -62.5t-46 -80t-47 -82t-39 -68.5 t-22.5 -40.5h-68l207 365zM520 1133h291q20 -37 50 -86.5t59.5 -101.5t56.5 -100t43 -83q-2 -6 -15.5 -31.5t-35 -62.5t-46 -80t-47 -82t-39 -68.5t-22.5 -40.5h-291l207 365zM862 1133h66q20 -37 50 -86.5t59.5 -101.5t56 -100t43.5 -83q-2 -6 -15.5 -31.5t-35 -62.5 t-46 -80t-47 -82t-39 -68.5t-22.5 -40.5h-68l207 365z" />
<glyph unicode="&#xbc;" horiz-adv-x="1472" d="M49 1276l293 207v-1141h-180v961l-86 -62zM317 0l1037 1542h55l-1038 -1542h-54zM387 342v1171l43 29v-1200h-43zM678 186l690 1033v-990h55v-43h-55v-186h-43v1079l-565 -850h340v451l180 272v-952h-180v186h-422z" />
<glyph unicode="&#xbd;" horiz-adv-x="2031" d="M49 1276l293 207v-1141h-180v961l-86 -62zM317 0l1037 1542h55l-1038 -1542h-54zM387 342v1171l43 29v-1200h-43zM1061 737q0 92 39 172t104.5 139.5t151.5 93.5t180 34t175 -38t140.5 -101.5t94 -147.5t36.5 -174l-462 -715h-209l581 905q-53 111 -151.5 169.5 t-220.5 58.5q-86 0 -162 -33t-132.5 -89.5t-89 -132t-32.5 -161.5q0 -113 55 -208t154 -153l-23 -39q-117 68 -173 177.5t-56 242.5zM1556 0l420 651q-4 -49 -22.5 -96t-44.5 -88l-275 -424h336v-43h-414z" />
<glyph unicode="&#xbe;" horiz-adv-x="1835" d="M49 821q0 86 32 166t89 143l33 -28q-53 -57 -82 -130t-29 -151q0 -86 33 -162.5t90 -133t133 -89.5t162 -33q102 0 192 48v739q-88 47 -190 47h-27.5t-25.5 -4l-19 39l217 227h-374v43h475l-248 -262q61 0 121.5 -15.5t113.5 -50.5v-788q-106 -66 -235 -66q-96 0 -179 36 t-146.5 99.5t-99.5 146.5t-36 179zM680 0l1036 1542h56l-1039 -1542h-53zM774 444v752q90 -63 143.5 -161.5t53.5 -209.5q0 -117 -49.5 -215t-147.5 -166zM1040 186l691 1033v-990h55v-43h-55v-186h-43v1079l-566 -850h340v451l180 272v-952h-180v186h-422z" />
<glyph unicode="&#xbf;" horiz-adv-x="1026" d="M49 94q0 139 70.5 259t193.5 186v-889q-121 68 -192.5 186.5t-71.5 257.5zM352 -367v924q10 8 26.5 13t29.5 10v192h57v-237l-55 -17v-846q74 -23 145 -22q117 0 214 53t161 150l47 -33q-70 -106 -181.5 -168t-240.5 -62q-109 0 -203 43zM375 956q0 51 23.5 96.5 t66.5 73.5v-340q-41 29 -65.5 74t-24.5 96zM506 539v608q33 12 69 12q86 0 145.5 -58.5t59.5 -144.5q0 -55 -26.5 -101t-73.5 -75h65v-278q-45 18 -91 29.5t-93 11.5q-14 0 -27.5 -1t-27.5 -3z" />
<glyph unicode="&#xc0;" horiz-adv-x="1198" d="M49 152v55h119l307 909l375 -1116h-62l-49 152h-530l-49 -152h-62l52 152h-101zM229 207h490l-246 727zM430 1745l31 51l307 -190l-31 -50zM500 1188l118 346l531 -1534h-238z" />
<glyph unicode="&#xc1;" horiz-adv-x="1198" d="M49 152v55h119l307 909l375 -1116h-62l-49 152h-530l-49 -152h-62l52 152h-101zM229 207h490l-246 727zM430 1614l307 190l31 -51l-307 -189zM500 1188l118 346l531 -1534h-238z" />
<glyph unicode="&#xc2;" horiz-adv-x="1198" d="M49 152v55h119l307 909l375 -1116h-62l-49 152h-530l-49 -152h-62l52 152h-101zM229 207h490l-246 727zM416 1589l201 158l201 -158l-35 -45l-166 129l-164 -129zM500 1188l118 346l531 -1534h-238z" />
<glyph unicode="&#xc3;" horiz-adv-x="1198" d="M49 152v55h119l307 909l375 -1116h-62l-49 152h-530l-49 -152h-62l52 152h-101zM229 207h490l-246 727zM375 1616q14 39 38 76t73 37q31 0 65.5 -12.5t68.5 -25.5t67.5 -25.5t64.5 -12.5q27 0 38 24.5t19 45.5l56 -19q-16 -43 -40 -76.5t-77 -33.5q-33 0 -65.5 12 t-64.5 25.5t-64.5 26t-65.5 12.5q-27 0 -40 -25t-18 -47zM500 1188l118 346l531 -1534h-238z" />
<glyph unicode="&#xc4;" horiz-adv-x="1198" d="M49 152v55h119l307 909l375 -1116h-62l-49 152h-530l-49 -152h-62l52 152h-101zM229 207h490l-246 727zM377 1661q0 47 34 81t81 34t81 -34t34 -81t-34 -81t-81 -34t-81 34t-34 81zM437 1661q0 -23 16 -40t39 -17t40 17t17 40t-17.5 40t-39.5 17q-23 0 -39 -17.5 t-16 -39.5zM500 1188l118 346l531 -1534h-238zM625 1661q0 47 34 81t81 34t80.5 -34t33.5 -81t-33.5 -81t-80.5 -34t-81 34t-34 81zM680 1661q0 -23 18.5 -40t41.5 -17t39 17t16 40t-16.5 40t-38.5 17q-23 0 -41.5 -17.5t-18.5 -39.5z" />
<glyph unicode="&#xc5;" horiz-adv-x="1198" d="M49 152v55h119l307 909l375 -1116h-62l-49 152h-530l-49 -152h-62l52 152h-101zM229 207h490l-246 727zM500 1188l118 346l531 -1534h-238zM502 1616q0 47 34 81t81 34t81 -34t34 -81t-34 -81t-81 -34t-81 34t-34 81zM562 1616q0 -23 16 -40t39 -17t40 17t17 40t-17.5 40 t-39.5 17q-23 0 -39 -17.5t-16 -39.5z" />
<glyph unicode="&#xc6;" horiz-adv-x="1460" d="M49 0l127 258h-119v57h148l633 1293v-1608h-242v258h-356l-125 -258h-66zM268 315h328v670zM877 0v1540h534v-55h-477v-1170h321v-57h-321v-201h477v-57h-534z" />
<glyph unicode="&#xc7;" horiz-adv-x="1421" d="M49 786q0 162 68.5 309.5t185.5 258.5v-1166q-127 121 -190.5 272.5t-63.5 325.5zM340 154v1235q109 88 239 135t269 47q145 0 280.5 -49t243.5 -148l-37 -45q-100 92 -226 137t-261 45q-123 0 -237.5 -38.5t-211.5 -112.5v-1180q96 -74 212 -112.5t237 -38.5 q135 0 261 47t226 135l37 -45q-111 -96 -245 -144.5t-279 -48.5q-139 0 -269 46.5t-239 134.5zM500 -290h176q37 0 68 11t31 52t-29 52.5t-64 11.5h-57l105 192l61 -35l-51 -94q47 -8 75.5 -45t28.5 -84q0 -53 -39 -92t-92 -39h-213v70z" />
<glyph unicode="&#xc8;" horiz-adv-x="1011" d="M49 1485v55h330v-1540h-236v1485h-94zM336 1800l31 51l307 -190l-31 -50zM418 0v1540h545v-55h-486v-293h379v-57h-379v-1076h486v-59h-545z" />
<glyph unicode="&#xc9;" horiz-adv-x="1011" d="M49 1485v55h330v-1540h-236v1485h-94zM336 1690l307 190l31 -51l-307 -189zM418 0v1540h545v-55h-486v-293h379v-57h-379v-1076h486v-59h-545z" />
<glyph unicode="&#xca;" horiz-adv-x="1011" d="M49 1485v55h330v-1540h-236v1485h-94zM305 1648l201 158l201 -158l-35 -45l-166 129l-164 -129zM418 0v1540h545v-55h-486v-293h379v-57h-379v-1076h486v-59h-545z" />
<glyph unicode="&#xcb;" horiz-adv-x="1011" d="M49 1485v55h330v-1540h-236v1485h-94zM266 1720q0 47 34 81t81 34t81 -34t34 -81t-34 -81t-81 -34t-81 34t-34 81zM326 1720q0 -23 16 -40t39 -17t40 17t17 40t-17.5 40t-39.5 17q-23 0 -39 -17.5t-16 -39.5zM418 0v1540h545v-55h-486v-293h379v-57h-379v-1076h486v-59 h-545zM514 1720q0 47 34 81t81 34t80.5 -34t33.5 -81t-33.5 -81t-80.5 -34t-81 34t-34 81zM569 1720q0 -23 18.5 -40t41.5 -17t39 17t16 40t-16.5 40t-38.5 17q-23 0 -41.5 -17.5t-18.5 -39.5z" />
<glyph unicode="&#xcc;" horiz-adv-x="528" d="M49 1485v55h328v-1540h-234v1485h-94zM94 1800l31 51l307 -190l-31 -50zM422 0v1540h57v-1540h-57z" />
<glyph unicode="&#xcd;" horiz-adv-x="528" d="M49 1485v55h328v-1540h-234v1485h-94zM94 1641l307 190l31 -51l-307 -189zM422 0v1540h57v-1540h-57z" />
<glyph unicode="&#xce;" horiz-adv-x="528" d="M49 1485v55h328v-1540h-234v1485h-94zM63 1642l201 158l201 -158l-35 -45l-166 129l-164 -129zM422 0v1540h57v-1540h-57z" />
<glyph unicode="&#xcf;" horiz-adv-x="528" d="M31 1702q0 47 34 81t81 34t81 -34t34 -81t-34 -81t-81 -34t-81 34t-34 81zM49 1485v55h328v-1540h-234v1485h-94zM91 1702q0 -23 16 -40t39 -17t40 17t17 40t-17.5 40t-39.5 17q-23 0 -39 -17.5t-16 -39.5zM279 1702q0 47 34 81t81 34t80.5 -34t33.5 -81t-33.5 -81 t-80.5 -34t-81 34t-34 81zM334 1702q0 -23 18.5 -40t41.5 -17t39 17t16 40t-16.5 40t-38.5 17q-23 0 -41.5 -17.5t-18.5 -39.5zM422 0v1540h57v-1540h-57z" />
<glyph unicode="&#xd0;" horiz-adv-x="1384" d="M49 1135v57h96v293h-96v55h330v-1540h-234v1135h-96zM418 0v1540h145q160 0 300.5 -60.5t244.5 -165t165.5 -244.5t61.5 -300t-61.5 -300t-167 -244.5t-245.5 -165t-298 -60.5h-145zM475 59h88q147 0 276.5 55.5t226.5 153t153.5 226.5t56.5 276t-56.5 277.5 t-153.5 227.5t-226 153.5t-277 56.5h-88v-293h109v-57h-109v-1076z" />
<glyph unicode="&#xd1;" horiz-adv-x="831" d="M49 1485v55h328v-1540h-234v1485h-94zM170 1642q14 39 38 76t73 37q31 0 65.5 -12.5t68.5 -25.5t67.5 -25.5t64.5 -12.5q27 0 38 24.5t19 45.5l56 -19q-16 -43 -40 -76.5t-77 -33.5q-33 0 -65.5 12t-64.5 25.5t-64.5 26t-65.5 12.5q-27 0 -40 -25t-18 -47zM422 0v1540 q98 0 175 -35t128 -108v143h57v-1540h-57v1210q0 51 -18.5 98.5t-52 84.5t-79 60.5t-96.5 29.5v-1483h-57z" />
<glyph unicode="&#xd2;" d="M49 770q0 170 67.5 321.5t192.5 268.5v-1180q-123 117 -191.5 268.5t-68.5 321.5zM346 147v1246q109 90 238 136t270 46q168 0 315.5 -62.5t256 -172t172 -256t63.5 -314.5t-63.5 -314.5t-173 -255t-256 -171t-314.5 -62.5q-139 0 -269 46t-239 134zM406 190 q96 -74 210.5 -114.5t237.5 -40.5q154 0 288 57.5t233.5 156.5t157.5 233t58 288t-57 288t-157.5 233.5t-234.5 156.5t-288 57q-123 0 -237.5 -40t-210.5 -113v-1162zM686 1790l31 51l307 -190l-31 -50z" />
<glyph unicode="&#xd3;" d="M49 770q0 170 67.5 321.5t192.5 268.5v-1180q-123 117 -191.5 268.5t-68.5 321.5zM346 147v1246q109 90 238 136t270 46q168 0 315.5 -62.5t256 -172t172 -256t63.5 -314.5t-63.5 -314.5t-173 -255t-256 -171t-314.5 -62.5q-139 0 -269 46t-239 134zM406 190 q96 -74 210.5 -114.5t237.5 -40.5q154 0 288 57.5t233.5 156.5t157.5 233t58 288t-57 288t-157.5 233.5t-234.5 156.5t-288 57q-123 0 -237.5 -40t-210.5 -113v-1162zM686 1680l307 190l31 -51l-307 -189z" />
<glyph unicode="&#xd4;" d="M49 770q0 170 67.5 321.5t192.5 268.5v-1180q-123 117 -191.5 268.5t-68.5 321.5zM346 147v1246q109 90 238 136t270 46q168 0 315.5 -62.5t256 -172t172 -256t63.5 -314.5t-63.5 -314.5t-173 -255t-256 -171t-314.5 -62.5q-139 0 -269 46t-239 134zM406 190 q96 -74 210.5 -114.5t237.5 -40.5q154 0 288 57.5t233.5 156.5t157.5 233t58 288t-57 288t-157.5 233.5t-234.5 156.5t-288 57q-123 0 -237.5 -40t-210.5 -113v-1162zM653 1687l201 158l201 -158l-35 -45l-166 129l-164 -129z" />
<glyph unicode="&#xd5;" d="M49 770q0 170 67.5 321.5t192.5 268.5v-1180q-123 117 -191.5 268.5t-68.5 321.5zM346 147v1246q109 90 238 136t270 46q168 0 315.5 -62.5t256 -172t172 -256t63.5 -314.5t-63.5 -314.5t-173 -255t-256 -171t-314.5 -62.5q-139 0 -269 46t-239 134zM406 190 q96 -74 210.5 -114.5t237.5 -40.5q154 0 288 57.5t233.5 156.5t157.5 233t58 288t-57 288t-157.5 233.5t-234.5 156.5t-288 57q-123 0 -237.5 -40t-210.5 -113v-1162zM610 1646q14 39 38 76t73 37q31 0 65.5 -12.5t68.5 -25.5t67.5 -25.5t64.5 -12.5q27 0 38 24.5t19 45.5 l56 -19q-16 -43 -40 -76.5t-77 -33.5q-33 0 -65.5 12t-64.5 25.5t-64.5 26t-65.5 12.5q-27 0 -40 -25t-18 -47z" />
<glyph unicode="&#xd6;" d="M49 770q0 170 67.5 321.5t192.5 268.5v-1180q-123 117 -191.5 268.5t-68.5 321.5zM346 147v1246q109 90 238 136t270 46q168 0 315.5 -62.5t256 -172t172 -256t63.5 -314.5t-63.5 -314.5t-173 -255t-256 -171t-314.5 -62.5q-139 0 -269 46t-239 134zM406 190 q96 -74 210.5 -114.5t237.5 -40.5q154 0 288 57.5t233.5 156.5t157.5 233t58 288t-57 288t-157.5 233.5t-234.5 156.5t-288 57q-123 0 -237.5 -40t-210.5 -113v-1162zM616 1737q0 47 34 81t81 34t81 -34t34 -81t-34 -81t-81 -34t-81 34t-34 81zM676 1737q0 -23 16 -40 t39 -17t40 17t17 40t-17.5 40t-39.5 17q-23 0 -39 -17.5t-16 -39.5zM864 1737q0 47 34 81t81 34t80.5 -34t33.5 -81t-33.5 -81t-80.5 -34t-81 34t-34 81zM919 1737q0 -23 18.5 -40t41.5 -17t39 17t16 40t-16.5 40t-38.5 17q-23 0 -41.5 -17.5t-18.5 -39.5z" />
<glyph unicode="&#xd7;" horiz-adv-x="903" d="M49 414l361 362l-361 359l43 43l359 -361l362 361l39 -45l-358 -357l360 -362l-41 -41l-362 360l-357 -358z" />
<glyph unicode="&#xd8;" d="M49 770q0 170 67.5 321.5t192.5 268.5v-1180q-123 117 -191.5 268.5t-68.5 321.5zM285 86l61 80v1227q109 90 240 136t270 46q129 0 249 -39t224 -115l53 70l45 -37l-53 -68q139 -117 213 -276.5t74 -339.5q0 -168 -63.5 -314.5t-172 -255t-255 -171t-314.5 -62.5 q-129 0 -249 39t-224 115l-53 -72zM406 242l880 1124q-94 68 -203.5 103.5t-226.5 35.5q-123 0 -237.5 -40t-212.5 -113v-1110zM426 174q94 -68 203.5 -103.5t226.5 -35.5q154 0 288 57.5t233.5 156.5t157.5 233t58 288q0 166 -67.5 311.5t-194.5 249.5z" />
<glyph unicode="&#xd9;" horiz-adv-x="925" d="M49 397v1143h70v-1143q0 -72 26.5 -135t73.5 -110.5t110.5 -74t135.5 -26.5t134.5 27.5t109.5 75t73.5 110t26.5 133.5v1143h68v-1143q0 -86 -32 -160.5t-88.5 -131t-131 -89t-160.5 -32.5t-161 32.5t-132 88t-90 131t-33 161.5zM293 1786l31 51l307 -190l-31 -50z M528 98v1442h240v-1139q0 -53 -17.5 -103t-50 -90t-76.5 -68.5t-96 -41.5z" />
<glyph unicode="&#xda;" horiz-adv-x="925" d="M49 397v1143h70v-1143q0 -72 26.5 -135t73.5 -110.5t110.5 -74t135.5 -26.5t134.5 27.5t109.5 75t73.5 110t26.5 133.5v1143h68v-1143q0 -86 -32 -160.5t-88.5 -131t-131 -89t-160.5 -32.5t-161 32.5t-132 88t-90 131t-33 161.5zM293 1653l307 190l31 -51l-307 -189z M528 98v1442h240v-1139q0 -53 -17.5 -103t-50 -90t-76.5 -68.5t-96 -41.5z" />
<glyph unicode="&#xdb;" horiz-adv-x="925" d="M49 397v1143h70v-1143q0 -72 26.5 -135t73.5 -110.5t110.5 -74t135.5 -26.5t134.5 27.5t109.5 75t73.5 110t26.5 133.5v1143h68v-1143q0 -86 -32 -160.5t-88.5 -131t-131 -89t-160.5 -32.5t-161 32.5t-132 88t-90 131t-33 161.5zM262 1657l201 158l201 -158l-35 -45 l-166 129l-164 -129zM528 98v1442h240v-1139q0 -53 -17.5 -103t-50 -90t-76.5 -68.5t-96 -41.5z" />
<glyph unicode="&#xdc;" horiz-adv-x="925" d="M49 397v1143h70v-1143q0 -72 26.5 -135t73.5 -110.5t110.5 -74t135.5 -26.5t134.5 27.5t109.5 75t73.5 110t26.5 133.5v1143h68v-1143q0 -86 -32 -160.5t-88.5 -131t-131 -89t-160.5 -32.5t-161 32.5t-132 88t-90 131t-33 161.5zM223 1702q0 47 34 81t81 34t81 -34 t34 -81t-34 -81t-81 -34t-81 34t-34 81zM283 1702q0 -23 16 -40t39 -17t40 17t17 40t-17.5 40t-39.5 17q-23 0 -39 -17.5t-16 -39.5zM471 1702q0 47 34 81t81 34t80.5 -34t33.5 -81t-33.5 -81t-80.5 -34t-81 34t-34 81zM526 1702q0 -23 18.5 -40t41.5 -17t39 17t16 40 t-16.5 40t-38.5 17q-23 0 -41.5 -17.5t-18.5 -39.5zM528 98v1442h240v-1139q0 -53 -17.5 -103t-50 -90t-76.5 -68.5t-96 -41.5z" />
<glyph unicode="&#xdd;" horiz-adv-x="1153" d="M49 1540h258l395 -899v-641h-239v606zM358 1540h64l350 -790l270 790h62l-299 -874v-666h-60v666zM563 1661l307 190l31 -51l-307 -189z" />
<glyph unicode="&#xde;" horiz-adv-x="1122" d="M49 1483v57h334v-1540h-242v1483h-92zM426 0v1540h57v-154q125 -6 232.5 -57t187.5 -135t125 -193.5t45 -234.5t-46 -234.5t-126 -193.5t-187.5 -135t-230.5 -58v-145h-57zM483 205q113 6 210.5 52t169 122t113.5 175t42 212t-41 213t-113.5 176t-170 122t-210.5 52 v-1124z" />
<glyph unicode="&#xdf;" horiz-adv-x="1173" d="M49 0v1231q0 113 62.5 199t171.5 120v-1550h-234zM319 0v1563q16 4 33 5t33 1q70 0 132.5 -26.5t107.5 -72t71.5 -108t26.5 -131.5q0 -66 -19.5 -112t-44 -79.5t-44 -61.5t-19.5 -56q0 -39 29.5 -69t72.5 -30q88 0 166 -33.5t135.5 -91t91 -135.5t33.5 -166t-32.5 -163.5 t-89 -133t-132 -92.5t-161.5 -37v58q76 2 141 31.5t113.5 78.5t76 116t27.5 142q0 76 -28.5 143.5t-79 117t-118 78t-143.5 28.5q-66 0 -111.5 46t-45.5 114q0 41 19.5 70.5t43 61t43 71.5t19.5 100q0 61 -21.5 112.5t-59.5 90t-91.5 60t-114.5 21.5v-1511h-60z" />
<glyph unicode="&#xe0;" horiz-adv-x="1198" d="M49 152v55h119l307 909l375 -1116h-62l-49 152h-530l-49 -152h-62l52 152h-101zM229 207h490l-246 727zM430 1741l31 51l307 -190l-31 -50zM500 1188l118 346l531 -1534h-238z" />
<glyph unicode="&#xe1;" horiz-adv-x="1198" d="M49 152v55h119l307 909l375 -1116h-62l-49 152h-530l-49 -152h-62l52 152h-101zM229 207h490l-246 727zM430 1602l307 190l31 -51l-307 -189zM500 1188l118 346l531 -1534h-238z" />
<glyph unicode="&#xe2;" horiz-adv-x="1198" d="M49 152v55h119l307 909l375 -1116h-62l-49 152h-530l-49 -152h-62l52 152h-101zM229 207h490l-246 727zM420 1585l201 158l201 -158l-35 -45l-166 129l-164 -129zM500 1188l118 346l531 -1534h-238z" />
<glyph unicode="&#xe3;" horiz-adv-x="1198" d="M49 152v55h119l307 909l375 -1116h-62l-49 152h-530l-49 -152h-62l52 152h-101zM229 207h490l-246 727zM375 1573q14 39 38 76t73 37q31 0 65.5 -12.5t68.5 -25.5t67.5 -25.5t64.5 -12.5q27 0 38 24.5t19 45.5l56 -19q-16 -43 -40 -76.5t-77 -33.5q-33 0 -65.5 12 t-64.5 25.5t-64.5 26t-65.5 12.5q-27 0 -40 -25t-18 -47zM500 1188l118 346l531 -1534h-238z" />
<glyph unicode="&#xe4;" horiz-adv-x="1198" d="M49 152v55h119l307 909l375 -1116h-62l-49 152h-530l-49 -152h-62l52 152h-101zM229 207h490l-246 727zM381 1667q0 47 34 81t81 34t81 -34t34 -81t-34 -81t-81 -34t-81 34t-34 81zM441 1667q0 -23 16 -40t39 -17t40 17t17 40t-17.5 40t-39.5 17q-23 0 -39 -17.5 t-16 -39.5zM500 1188l118 346l531 -1534h-238zM629 1667q0 47 34 81t81 34t80.5 -34t33.5 -81t-33.5 -81t-80.5 -34t-81 34t-34 81zM684 1667q0 -23 18.5 -40t41.5 -17t39 17t16 40t-16.5 40t-38.5 17q-23 0 -41.5 -17.5t-18.5 -39.5z" />
<glyph unicode="&#xe5;" horiz-adv-x="1198" d="M49 152v55h119l307 909l375 -1116h-62l-49 152h-530l-49 -152h-62l52 152h-101zM229 207h490l-246 727zM500 1188l118 346l531 -1534h-238zM506 1610q0 47 34 81t81 34t81 -34t34 -81t-34 -81t-81 -34t-81 34t-34 81zM566 1610q0 -23 16 -40t39 -17t40 17t17 40t-17.5 40 t-39.5 17q-23 0 -39 -17.5t-16 -39.5z" />
<glyph unicode="&#xe6;" horiz-adv-x="1460" d="M49 0l127 258h-119v57h148l633 1293v-1608h-242v258h-356l-125 -258h-66zM268 315h328v670zM877 0v1540h534v-55h-477v-1170h321v-57h-321v-201h477v-57h-534z" />
<glyph unicode="&#xe7;" horiz-adv-x="1421" d="M49 786q0 162 68.5 309.5t185.5 258.5v-1166q-127 121 -190.5 272.5t-63.5 325.5zM340 154v1235q109 88 239 135t269 47q145 0 280.5 -49t243.5 -148l-37 -45q-100 92 -226 137t-261 45q-123 0 -237.5 -38.5t-211.5 -112.5v-1180q96 -74 212 -112.5t237 -38.5 q135 0 261 47t226 135l37 -45q-111 -96 -245 -144.5t-279 -48.5q-139 0 -269 46.5t-239 134.5zM514 -290h176q37 0 68 11t31 52t-29 52.5t-64 11.5h-57l105 192l61 -35l-51 -94q47 -8 75.5 -45t28.5 -84q0 -53 -39 -92t-92 -39h-213v70z" />
<glyph unicode="&#xe8;" horiz-adv-x="1011" d="M49 1485v55h330v-1540h-236v1485h-94zM336 1741l31 51l307 -190l-31 -50zM418 0v1540h545v-55h-486v-293h379v-57h-379v-1076h486v-59h-545z" />
<glyph unicode="&#xe9;" horiz-adv-x="1011" d="M49 1485v55h330v-1540h-236v1485h-94zM336 1602l307 190l31 -51l-307 -189zM418 0v1540h545v-55h-486v-293h379v-57h-379v-1076h486v-59h-545z" />
<glyph unicode="&#xea;" horiz-adv-x="1011" d="M49 1485v55h330v-1540h-236v1485h-94zM305 1632l201 158l201 -158l-35 -45l-166 129l-164 -129zM418 0v1540h545v-55h-486v-293h379v-57h-379v-1076h486v-59h-545z" />
<glyph unicode="&#xeb;" horiz-adv-x="1011" d="M49 1485v55h330v-1540h-236v1485h-94zM266 1696q0 47 34 81t81 34t81 -34t34 -81t-34 -81t-81 -34t-81 34t-34 81zM326 1696q0 -23 16 -40t39 -17t40 17t17 40t-17.5 40t-39.5 17q-23 0 -39 -17.5t-16 -39.5zM418 0v1540h545v-55h-486v-293h379v-57h-379v-1076h486v-59 h-545zM514 1696q0 47 34 81t81 34t80.5 -34t33.5 -81t-33.5 -81t-80.5 -34t-81 34t-34 81zM569 1696q0 -23 18.5 -40t41.5 -17t39 17t16 40t-16.5 40t-38.5 17q-23 0 -41.5 -17.5t-18.5 -39.5z" />
<glyph unicode="&#xec;" horiz-adv-x="528" d="M49 1485v55h328v-1540h-234v1485h-94zM94 1770l31 51l307 -190l-31 -50zM422 0v1540h57v-1540h-57z" />
<glyph unicode="&#xed;" horiz-adv-x="528" d="M49 1485v55h328v-1540h-234v1485h-94zM94 1647l307 190l31 -51l-307 -189zM422 0v1540h57v-1540h-57z" />
<glyph unicode="&#xee;" horiz-adv-x="528" d="M49 1485v55h328v-1540h-234v1485h-94zM63 1630l201 158l201 -158l-35 -45l-166 129l-164 -129zM422 0v1540h57v-1540h-57z" />
<glyph unicode="&#xef;" horiz-adv-x="528" d="M31 1710q0 47 34 81t81 34t81 -34t34 -81t-34 -81t-81 -34t-81 34t-34 81zM49 1485v55h328v-1540h-234v1485h-94zM91 1710q0 -23 16 -40t39 -17t40 17t17 40t-17.5 40t-39.5 17q-23 0 -39 -17.5t-16 -39.5zM279 1710q0 47 34 81t81 34t80.5 -34t33.5 -81t-33.5 -81 t-80.5 -34t-81 34t-34 81zM334 1710q0 -23 18.5 -40t41.5 -17t39 17t16 40t-16.5 40t-38.5 17q-23 0 -41.5 -17.5t-18.5 -39.5zM422 0v1540h57v-1540h-57z" />
<glyph unicode="&#xf0;" horiz-adv-x="1384" d="M49 1135v57h96v293h-96v55h330v-1540h-234v1135h-96zM418 0v1540h145q160 0 300.5 -60.5t244.5 -165t165.5 -244.5t61.5 -300t-61.5 -300t-167 -244.5t-245.5 -165t-298 -60.5h-145zM475 59h88q147 0 276.5 55.5t226.5 153t153.5 226.5t56.5 276t-56.5 277.5 t-153.5 227.5t-226 153.5t-277 56.5h-88v-293h109v-57h-109v-1076z" />
<glyph unicode="&#xf1;" horiz-adv-x="831" d="M49 1485v55h328v-1540h-234v1485h-94zM213 1607q14 39 38 76t73 37q31 0 65.5 -12.5t68.5 -25.5t67.5 -25.5t64.5 -12.5q27 0 38 24.5t19 45.5l56 -19q-16 -43 -40 -76.5t-77 -33.5q-33 0 -65.5 12t-64.5 25.5t-64.5 26t-65.5 12.5q-27 0 -40 -25t-18 -47zM422 0v1540 q98 0 175 -35t128 -108v143h57v-1540h-57v1210q0 51 -18.5 98.5t-52 84.5t-79 60.5t-96.5 29.5v-1483h-57z" />
<glyph unicode="&#xf2;" d="M49 770q0 170 67.5 321.5t192.5 268.5v-1180q-123 117 -191.5 268.5t-68.5 321.5zM346 147v1246q109 90 238 136t270 46q168 0 315.5 -62.5t256 -172t172 -256t63.5 -314.5t-63.5 -314.5t-173 -255t-256 -171t-314.5 -62.5q-139 0 -269 46t-239 134zM406 190 q96 -74 210.5 -114.5t237.5 -40.5q154 0 288 57.5t233.5 156.5t157.5 233t58 288t-57 288t-157.5 233.5t-234.5 156.5t-288 57q-123 0 -237.5 -40t-210.5 -113v-1162zM686 1788l31 51l307 -190l-31 -50z" />
<glyph unicode="&#xf3;" d="M49 770q0 170 67.5 321.5t192.5 268.5v-1180q-123 117 -191.5 268.5t-68.5 321.5zM346 147v1246q109 90 238 136t270 46q168 0 315.5 -62.5t256 -172t172 -256t63.5 -314.5t-63.5 -314.5t-173 -255t-256 -171t-314.5 -62.5q-139 0 -269 46t-239 134zM406 190 q96 -74 210.5 -114.5t237.5 -40.5q154 0 288 57.5t233.5 156.5t157.5 233t58 288t-57 288t-157.5 233.5t-234.5 156.5t-288 57q-123 0 -237.5 -40t-210.5 -113v-1162zM686 1659l307 190l31 -51l-307 -189z" />
<glyph unicode="&#xf4;" d="M49 770q0 170 67.5 321.5t192.5 268.5v-1180q-123 117 -191.5 268.5t-68.5 321.5zM346 147v1246q109 90 238 136t270 46q168 0 315.5 -62.5t256 -172t172 -256t63.5 -314.5t-63.5 -314.5t-173 -255t-256 -171t-314.5 -62.5q-139 0 -269 46t-239 134zM406 190 q96 -74 210.5 -114.5t237.5 -40.5q154 0 288 57.5t233.5 156.5t157.5 233t58 288t-57 288t-157.5 233.5t-234.5 156.5t-288 57q-123 0 -237.5 -40t-210.5 -113v-1162zM653 1653l201 158l201 -158l-35 -45l-166 129l-164 -129z" />
<glyph unicode="&#xf5;" d="M49 770q0 170 67.5 321.5t192.5 268.5v-1180q-123 117 -191.5 268.5t-68.5 321.5zM346 147v1246q109 90 238 136t270 46q168 0 315.5 -62.5t256 -172t172 -256t63.5 -314.5t-63.5 -314.5t-173 -255t-256 -171t-314.5 -62.5q-139 0 -269 46t-239 134zM406 190 q96 -74 210.5 -114.5t237.5 -40.5q154 0 288 57.5t233.5 156.5t157.5 233t58 288t-57 288t-157.5 233.5t-234.5 156.5t-288 57q-123 0 -237.5 -40t-210.5 -113v-1162zM610 1642q14 39 38 76t73 37q31 0 65.5 -12.5t68.5 -25.5t67.5 -25.5t64.5 -12.5q27 0 38 24.5t19 45.5 l56 -19q-16 -43 -40 -76.5t-77 -33.5q-33 0 -65.5 12t-64.5 25.5t-64.5 26t-65.5 12.5q-27 0 -40 -25t-18 -47z" />
<glyph unicode="&#xf6;" d="M49 770q0 170 67.5 321.5t192.5 268.5v-1180q-123 117 -191.5 268.5t-68.5 321.5zM346 147v1246q109 90 238 136t270 46q168 0 315.5 -62.5t256 -172t172 -256t63.5 -314.5t-63.5 -314.5t-173 -255t-256 -171t-314.5 -62.5q-139 0 -269 46t-239 134zM406 190 q96 -74 210.5 -114.5t237.5 -40.5q154 0 288 57.5t233.5 156.5t157.5 233t58 288t-57 288t-157.5 233.5t-234.5 156.5t-288 57q-123 0 -237.5 -40t-210.5 -113v-1162zM616 1725q0 47 34 81t81 34t81 -34t34 -81t-34 -81t-81 -34t-81 34t-34 81zM676 1725q0 -23 16 -40 t39 -17t40 17t17 40t-17.5 40t-39.5 17q-23 0 -39 -17.5t-16 -39.5zM864 1725q0 47 34 81t81 34t80.5 -34t33.5 -81t-33.5 -81t-80.5 -34t-81 34t-34 81zM919 1725q0 -23 18.5 -40t41.5 -17t39 17t16 40t-16.5 40t-38.5 17q-23 0 -41.5 -17.5t-18.5 -39.5z" />
<glyph unicode="&#xf7;" horiz-adv-x="1077" d="M49 745v60h979v-60h-979zM438 582q0 41 30 69.5t71 28.5t69.5 -28.5t28.5 -69.5t-28.5 -71t-69.5 -30t-71 30t-30 71zM438 969q0 41 30 70.5t71 29.5t69.5 -29.5t28.5 -70.5t-28.5 -70t-69.5 -29t-71 29t-30 70z" />
<glyph unicode="&#xf8;" d="M49 770q0 170 67.5 321.5t192.5 268.5v-1180q-123 117 -191.5 268.5t-68.5 321.5zM285 86l61 80v1227q109 90 240 136t270 46q129 0 249 -39t224 -115l53 70l45 -37l-53 -68q139 -117 213 -276.5t74 -339.5q0 -168 -63.5 -314.5t-172 -255t-255 -171t-314.5 -62.5 q-129 0 -249 39t-224 115l-53 -72zM406 242l880 1124q-94 68 -203.5 103.5t-226.5 35.5q-123 0 -237.5 -40t-212.5 -113v-1110zM426 174q94 -68 203.5 -103.5t226.5 -35.5q154 0 288 57.5t233.5 156.5t157.5 233t58 288q0 166 -67.5 311.5t-194.5 249.5z" />
<glyph unicode="&#xf9;" horiz-adv-x="925" d="M49 397v1143h70v-1143q0 -72 26.5 -135t73.5 -110.5t110.5 -74t135.5 -26.5t134.5 27.5t109.5 75t73.5 110t26.5 133.5v1143h68v-1143q0 -86 -32 -160.5t-88.5 -131t-131 -89t-160.5 -32.5t-161 32.5t-132 88t-90 131t-33 161.5zM293 1768l31 51l307 -190l-31 -50z M528 98v1442h240v-1139q0 -53 -17.5 -103t-50 -90t-76.5 -68.5t-96 -41.5z" />
<glyph unicode="&#xfa;" horiz-adv-x="925" d="M49 397v1143h70v-1143q0 -72 26.5 -135t73.5 -110.5t110.5 -74t135.5 -26.5t134.5 27.5t109.5 75t73.5 110t26.5 133.5v1143h68v-1143q0 -86 -32 -160.5t-88.5 -131t-131 -89t-160.5 -32.5t-161 32.5t-132 88t-90 131t-33 161.5zM293 1633l307 190l31 -51l-307 -189z M528 98v1442h240v-1139q0 -53 -17.5 -103t-50 -90t-76.5 -68.5t-96 -41.5z" />
<glyph unicode="&#xfb;" horiz-adv-x="925" d="M49 397v1143h70v-1143q0 -72 26.5 -135t73.5 -110.5t110.5 -74t135.5 -26.5t134.5 27.5t109.5 75t73.5 110t26.5 133.5v1143h68v-1143q0 -86 -32 -160.5t-88.5 -131t-131 -89t-160.5 -32.5t-161 32.5t-132 88t-90 131t-33 161.5zM262 1646l201 158l201 -158l-35 -45 l-166 129l-164 -129zM528 98v1442h240v-1139q0 -53 -17.5 -103t-50 -90t-76.5 -68.5t-96 -41.5z" />
<glyph unicode="&#xfc;" horiz-adv-x="925" d="M49 397v1143h70v-1143q0 -72 26.5 -135t73.5 -110.5t110.5 -74t135.5 -26.5t134.5 27.5t109.5 75t73.5 110t26.5 133.5v1143h68v-1143q0 -86 -32 -160.5t-88.5 -131t-131 -89t-160.5 -32.5t-161 32.5t-132 88t-90 131t-33 161.5zM223 1714q0 47 34 81t81 34t81 -34 t34 -81t-34 -81t-81 -34t-81 34t-34 81zM283 1714q0 -23 16 -40t39 -17t40 17t17 40t-17.5 40t-39.5 17q-23 0 -39 -17.5t-16 -39.5zM471 1714q0 47 34 81t81 34t80.5 -34t33.5 -81t-33.5 -81t-80.5 -34t-81 34t-34 81zM526 1714q0 -23 18.5 -40t41.5 -17t39 17t16 40 t-16.5 40t-38.5 17q-23 0 -41.5 -17.5t-18.5 -39.5zM528 98v1442h240v-1139q0 -53 -17.5 -103t-50 -90t-76.5 -68.5t-96 -41.5z" />
<glyph unicode="&#xfd;" horiz-adv-x="1153" d="M49 1540h258l395 -899v-641h-239v606zM358 1540h64l350 -790l270 790h62l-299 -874v-666h-60v666zM553 1633l307 190l31 -51l-307 -189z" />
<glyph unicode="&#xfe;" horiz-adv-x="1122" d="M49 1483v57h334v-1540h-242v1483h-92zM426 0v1540h57v-154q125 -6 232.5 -57t187.5 -135t125 -193.5t45 -234.5t-46 -234.5t-126 -193.5t-187.5 -135t-230.5 -58v-145h-57zM483 205q113 6 210.5 52t169 122t113.5 175t42 212t-41 213t-113.5 176t-170 122t-210.5 52 v-1124z" />
<glyph unicode="&#xff;" horiz-adv-x="1153" d="M49 1540h258l395 -899v-641h-239v606zM358 1540h64l350 -790l270 790h62l-299 -874v-666h-60v666zM446 1694q0 47 34 81t81 34t81 -34t34 -81t-34 -81t-81 -34t-81 34t-34 81zM506 1694q0 -23 16 -40t39 -17t40 17t17 40t-17.5 40t-39.5 17q-23 0 -39 -17.5t-16 -39.5z M694 1694q0 47 34 81t81 34t80.5 -34t33.5 -81t-33.5 -81t-80.5 -34t-81 34t-34 81zM749 1694q0 -23 18.5 -40t41.5 -17t39 17t16 40t-16.5 40t-38.5 17q-23 0 -41.5 -17.5t-18.5 -39.5z" />
<glyph unicode="&#x152;" horiz-adv-x="2195" d="M49 770q0 170 67.5 321.5t192.5 268.5v-1180q-123 117 -191.5 268.5t-68.5 321.5zM346 147v1246q109 90 240 136t270 46q129 0 248 -39t223 -113v117h234v-1540h-234v119q-104 -74 -223 -113t-248 -39q-139 0 -270 45t-240 135zM406 190q98 -76 212.5 -115.5t237.5 -39.5 q129 0 251 43t220 129v1128q-98 84 -220 127t-251 43q-123 0 -238.5 -39t-211.5 -114v-1162zM1602 0v1540h544v-55h-487v-293h381v-57h-381v-1076h487v-59h-544z" />
<glyph unicode="&#x153;" horiz-adv-x="2195" d="M49 770q0 170 67.5 321.5t192.5 268.5v-1180q-123 117 -191.5 268.5t-68.5 321.5zM346 147v1246q109 90 240 136t270 46q129 0 248 -39t223 -113v117h234v-1540h-234v119q-104 -74 -223 -113t-248 -39q-139 0 -270 45t-240 135zM406 190q98 -76 212.5 -115.5t237.5 -39.5 q129 0 251 43t220 129v1128q-98 84 -220 127t-251 43q-123 0 -238.5 -39t-211.5 -114v-1162zM1602 0v1540h544v-55h-487v-293h381v-57h-381v-1076h487v-59h-544z" />
<glyph unicode="&#x178;" horiz-adv-x="1153" d="M49 1540h258l395 -899v-641h-239v606zM358 1540h64l350 -790l270 790h62l-299 -874v-666h-60v666zM409 1698q0 47 34 81t81 34t81 -34t34 -81t-34 -81t-81 -34t-81 34t-34 81zM469 1698q0 -23 16 -40t39 -17t40 17t17 40t-17.5 40t-39.5 17q-23 0 -39 -17.5t-16 -39.5z M657 1698q0 47 34 81t81 34t80.5 -34t33.5 -81t-33.5 -81t-80.5 -34t-81 34t-34 81zM712 1698q0 -23 18.5 -40t41.5 -17t39 17t16 40t-16.5 40t-38.5 17q-23 0 -41.5 -17.5t-18.5 -39.5z" />
<glyph unicode="&#x2c6;" horiz-adv-x="499" d="M49 1585l201 158l201 -158l-35 -45l-166 129l-164 -129z" />
<glyph unicode="&#x2dc;" horiz-adv-x="587" d="M49 1548q14 39 38 76t73 37q31 0 65.5 -12.5t68.5 -25.5t67.5 -25.5t64.5 -12.5q27 0 38 24.5t19 45.5l56 -19q-16 -43 -40 -76.5t-77 -33.5q-33 0 -65.5 12t-64.5 25.5t-64.5 26t-65.5 12.5q-27 0 -40 -25t-18 -47z" />
<glyph unicode="&#x2000;" horiz-adv-x="940" />
<glyph unicode="&#x2001;" horiz-adv-x="1880" />
<glyph unicode="&#x2002;" horiz-adv-x="940" />
<glyph unicode="&#x2003;" horiz-adv-x="1880" />
<glyph unicode="&#x2004;" horiz-adv-x="626" />
<glyph unicode="&#x2005;" horiz-adv-x="470" />
<glyph unicode="&#x2006;" horiz-adv-x="313" />
<glyph unicode="&#x2007;" horiz-adv-x="313" />
<glyph unicode="&#x2008;" horiz-adv-x="235" />
<glyph unicode="&#x2009;" horiz-adv-x="376" />
<glyph unicode="&#x200a;" horiz-adv-x="104" />
<glyph unicode="&#x2010;" horiz-adv-x="581" d="M49 549v57h483v-57h-483zM49 645v234h483v-234h-483z" />
<glyph unicode="&#x2011;" horiz-adv-x="581" d="M49 549v57h483v-57h-483zM49 645v234h483v-234h-483z" />
<glyph unicode="&#x2012;" horiz-adv-x="581" d="M49 549v57h483v-57h-483zM49 645v234h483v-234h-483z" />
<glyph unicode="&#x2013;" horiz-adv-x="1064" d="M49 549v57h967v-57h-967zM49 645v234h967v-234h-967z" />
<glyph unicode="&#x2014;" horiz-adv-x="1548" d="M49 549v57h1450v-57h-1450zM49 645v234h1450v-234h-1450z" />
<glyph unicode="&#x2018;" horiz-adv-x="503" d="M49 1157v385h57v-526q-29 29 -43 65.5t-14 75.5zM145 983v348q23 12 49.5 20.5t55.5 8.5q86 0 145.5 -58.5t59.5 -144.5t-59.5 -144.5t-145.5 -58.5q-29 0 -55.5 6.5t-49.5 22.5z" />
<glyph unicode="&#x2019;" horiz-adv-x="503" d="M49 1339q0 86 59.5 144.5t145.5 58.5q29 0 55.5 -6t48.5 -23v-348q-51 -29 -104 -28q-86 0 -145.5 58t-59.5 144zM397 954v527q29 -29 43.5 -65t14.5 -77v-385h-58z" />
<glyph unicode="&#x201a;" horiz-adv-x="503" d="M49 152q0 86 59.5 144t145.5 58q29 0 55.5 -6t48.5 -22v-349q-25 -10 -50 -18t-54 -8q-43 0 -80 15.5t-64.5 42t-44 63.5t-16.5 80zM397 -233v526q29 -29 43.5 -64.5t14.5 -76.5v-385h-58z" />
<glyph unicode="&#x201c;" horiz-adv-x="933" d="M49 1155v385h57v-526q-29 29 -43 65.5t-14 75.5zM145 981v348q23 12 49.5 20.5t55.5 8.5q86 0 145.5 -58.5t59.5 -144.5t-59.5 -144.5t-145.5 -58.5q-29 0 -55.5 6.5t-49.5 22.5zM479 1155v385h58v-526q-29 29 -43.5 65.5t-14.5 75.5zM575 981v348q23 12 49.5 20.5 t55.5 8.5q86 0 145.5 -58.5t59.5 -144.5t-59.5 -144.5t-145.5 -58.5q-29 0 -55.5 6.5t-49.5 22.5z" />
<glyph unicode="&#x201d;" horiz-adv-x="933" d="M49 1339q0 86 59.5 144.5t145.5 58.5q29 0 55.5 -6t48.5 -23v-348q-51 -29 -104 -28q-86 0 -145.5 58t-59.5 144zM397 954v527q29 -29 43.5 -65t14.5 -77v-385h-58zM479 1339q0 86 59.5 144.5t145.5 58.5q29 0 55.5 -6t48.5 -23v-348q-51 -29 -104 -28q-86 0 -145.5 58 t-59.5 144zM827 954v527q29 -29 43.5 -65t14.5 -77v-385h-58z" />
<glyph unicode="&#x201e;" horiz-adv-x="933" d="M49 152q0 86 59.5 144t145.5 58q29 0 55.5 -6t48.5 -22v-349q-25 -10 -50 -18t-54 -8q-43 0 -80 15.5t-64.5 42t-44 63.5t-16.5 80zM397 -233v526q29 -29 43.5 -64.5t14.5 -76.5v-385h-58zM479 152q0 86 59.5 144t145.5 58q29 0 55.5 -6t48.5 -22v-349q-25 -10 -50 -18 t-54 -8q-43 0 -80 15.5t-64.5 42t-44 63.5t-16.5 80zM827 -233v526q29 -29 43.5 -64.5t14.5 -76.5v-385h-58z" />
<glyph unicode="&#x2022;" horiz-adv-x="503" d="M49 745q0 86 59.5 144.5t145.5 58.5q29 0 55.5 -6t48.5 -22v-349q-51 -29 -104 -28q-86 0 -145.5 58t-59.5 144zM399 604v283q29 -29 42.5 -66t13.5 -76q0 -80 -56 -141z" />
<glyph unicode="&#x2026;" horiz-adv-x="1445" d="M49 152q0 86 59.5 144t145.5 58q29 0 55.5 -6t48.5 -22v-349q-25 -10 -50 -18t-54 -8q-43 0 -80 15.5t-64.5 42t-44 63.5t-16.5 80zM399 10v283q29 -29 42.5 -65.5t13.5 -75.5q0 -80 -56 -142zM520 152q0 86 59.5 144t145.5 58q29 0 55.5 -6t48.5 -22v-349 q-25 -10 -50 -18t-54 -8q-43 0 -80 15.5t-64.5 42t-44 63.5t-16.5 80zM870 10v283q29 -29 42.5 -65.5t13.5 -75.5q0 -80 -56 -142zM991 152q0 86 59.5 144t145.5 58q29 0 55.5 -6t48.5 -22v-349q-25 -10 -50 -18t-54 -8q-43 0 -80 15.5t-64.5 42t-44 63.5t-16.5 80zM1341 10 v283q29 -29 42.5 -65.5t13.5 -75.5q0 -80 -56 -142z" />
<glyph unicode="&#x202f;" horiz-adv-x="376" />
<glyph unicode="&#x2039;" horiz-adv-x="714" d="M49 762q14 35 42 83t57.5 100t59.5 101.5t50 86.5h66l-209 -371l207 -365h-68q-6 10 -22.5 40t-39 69t-47 82t-46 80t-36 62.5t-14.5 31.5zM166 762q14 35 42 83t57.5 100t59 101.5t50.5 86.5h291l-211 -371l207 -365h-291q-6 10 -22.5 40t-39 69t-47 82t-46 80t-36 62.5 t-14.5 31.5z" />
<glyph unicode="&#x203a;" horiz-adv-x="714" d="M49 1133h291q20 -37 50 -86.5t59.5 -101.5t56 -100t43.5 -83q0 -6 -14.5 -31.5t-36 -62.5t-46 -80t-47 -82t-39 -68.5t-22.5 -40.5h-291l207 365zM391 1133h66q20 -37 50 -86.5t59.5 -101.5t56 -100t43.5 -83q-2 -6 -15.5 -31.5t-35 -62.5t-46 -80t-47 -82t-39 -68.5 t-22.5 -40.5h-68l207 365z" />
<glyph unicode="&#x205f;" horiz-adv-x="470" />
<glyph unicode="&#x20ac;" horiz-adv-x="1280" d="M49 492l29 57h166q-6 16 -12.5 32.5t-10.5 32.5h-110l28 60h70q-4 29 -7 54.5t-3 53.5q0 147 64.5 273.5t180.5 212.5v-979q-55 41 -98 92t-76 111h-221zM485 262v1032q152 94 326 95q111 0 213 -39t186 -113l-26 -53q-76 72 -175.5 110.5t-203.5 38.5q-141 0 -264 -69 v-590h389l-29 -60h-360v-65h327l-28 -57h-299v-199q61 -33 128.5 -50.5t139.5 -17.5q106 0 205.5 40t177.5 114l39 -41q-94 -90 -205 -130t-240 -40q-78 0 -156.5 26.5t-144.5 67.5z" />
<glyph unicode="&#x2122;" horiz-adv-x="1148" d="M49 1513v25h234v-666h-103v641h-131zM309 872v666h162v-25h-139v-641h-23zM510 1513v25h147v-666h-100v641h-47zM686 872v666q39 0 73 -14.5t56 -46.5v61h100v-666h-100v529q0 43 -31.5 75.5t-72.5 36.5v-641h-25zM946 872v666q61 0 107.5 -39t46.5 -102v-525h-27v525 q0 45 -29.5 78.5t-74.5 37.5v-641h-23z" />
<glyph unicode="&#x25fc;" horiz-adv-x="1536" d="M0 0v1536h1536v-1536h-1536z" />
</font>
</defs>
</svg>
